G04 #@! TF.GenerationSoftware,KiCad,Pcbnew,(5.1.5)-1*
G04 #@! TF.CreationDate,2020-02-15T15:22:26-05:00*
G04 #@! TF.ProjectId,potencia,706f7465-6e63-4696-912e-6b696361645f,rev?*
G04 #@! TF.SameCoordinates,Original*
G04 #@! TF.FileFunction,Legend,Top*
G04 #@! TF.FilePolarity,Positive*
%FSLAX46Y46*%
G04 Gerber Fmt 4.6, Leading zero omitted, Abs format (unit mm)*
G04 Created by KiCad (PCBNEW (5.1.5)-1) date 2020-02-15 15:22:26*
%MOMM*%
%LPD*%
G04 APERTURE LIST*
%ADD10C,0.120000*%
%ADD11C,0.150000*%
G04 APERTURE END LIST*
D10*
X85900000Y-70160000D02*
X85900000Y-67160000D01*
X85900000Y-67160000D02*
X88900000Y-67160000D01*
X86280000Y-67540000D02*
X96520000Y-67540000D01*
X96520000Y-67540000D02*
X96520000Y-80280000D01*
X86280000Y-80280000D02*
X96520000Y-80280000D01*
X86280000Y-67540000D02*
X86280000Y-80280000D01*
X86280000Y-67540000D02*
X96520000Y-67540000D01*
X96520000Y-67540000D02*
X96520000Y-80280000D01*
X86280000Y-80280000D02*
X96520000Y-80280000D01*
X86280000Y-67540000D02*
X86280000Y-80280000D01*
X59230000Y-98100000D02*
X59230000Y-95100000D01*
X59230000Y-95100000D02*
X62230000Y-95100000D01*
X59610000Y-95480000D02*
X89850000Y-95480000D01*
X89850000Y-95480000D02*
X89850000Y-108220000D01*
X59610000Y-108220000D02*
X89850000Y-108220000D01*
X59610000Y-95480000D02*
X59610000Y-108220000D01*
X59610000Y-95480000D02*
X89850000Y-95480000D01*
X89850000Y-95480000D02*
X89850000Y-108220000D01*
X59610000Y-108220000D02*
X89850000Y-108220000D01*
X59610000Y-95480000D02*
X59610000Y-108220000D01*
X98980000Y-95480000D02*
X98980000Y-108220000D01*
X98980000Y-108220000D02*
X129220000Y-108220000D01*
X129220000Y-95480000D02*
X129220000Y-108220000D01*
X98980000Y-95480000D02*
X129220000Y-95480000D01*
X98980000Y-95480000D02*
X98980000Y-108220000D01*
X98980000Y-108220000D02*
X129220000Y-108220000D01*
X129220000Y-95480000D02*
X129220000Y-108220000D01*
X98980000Y-95480000D02*
X129220000Y-95480000D01*
X98600000Y-95100000D02*
X101600000Y-95100000D01*
X98600000Y-98100000D02*
X98600000Y-95100000D01*
X118920000Y-71430000D02*
X118920000Y-68430000D01*
X118920000Y-68430000D02*
X121920000Y-68430000D01*
X119300000Y-68810000D02*
X129540000Y-68810000D01*
X129540000Y-68810000D02*
X129540000Y-81550000D01*
X119300000Y-81550000D02*
X129540000Y-81550000D01*
X119300000Y-68810000D02*
X119300000Y-81550000D01*
X119300000Y-68810000D02*
X129540000Y-68810000D01*
X129540000Y-68810000D02*
X129540000Y-81550000D01*
X119300000Y-81550000D02*
X129540000Y-81550000D01*
X119300000Y-68810000D02*
X119300000Y-81550000D01*
X139640000Y-87690000D02*
X142300000Y-87690000D01*
X139640000Y-87570000D02*
X139640000Y-87690000D01*
X142300000Y-87570000D02*
X142300000Y-87690000D01*
X142300000Y-85030000D02*
X142300000Y-86360000D01*
X140970000Y-85030000D02*
X142300000Y-85030000D01*
X140970000Y-102810000D02*
X142300000Y-102810000D01*
X142300000Y-102810000D02*
X142300000Y-104140000D01*
X142300000Y-105350000D02*
X142300000Y-105470000D01*
X139640000Y-105350000D02*
X139640000Y-105470000D01*
X139640000Y-105470000D02*
X142300000Y-105470000D01*
X180280000Y-105470000D02*
X182940000Y-105470000D01*
X180280000Y-105350000D02*
X180280000Y-105470000D01*
X182940000Y-105350000D02*
X182940000Y-105470000D01*
X182940000Y-102810000D02*
X182940000Y-104140000D01*
X181610000Y-102810000D02*
X182940000Y-102810000D01*
X181610000Y-85030000D02*
X182940000Y-85030000D01*
X182940000Y-85030000D02*
X182940000Y-86360000D01*
X182940000Y-87570000D02*
X182940000Y-87690000D01*
X180280000Y-87570000D02*
X180280000Y-87690000D01*
X180280000Y-87690000D02*
X182940000Y-87690000D01*
X198350000Y-91520000D02*
X211090000Y-91520000D01*
X211090000Y-91520000D02*
X211090000Y-81280000D01*
X198350000Y-81280000D02*
X211090000Y-81280000D01*
X198350000Y-91520000D02*
X198350000Y-81280000D01*
X198350000Y-91520000D02*
X211090000Y-91520000D01*
X211090000Y-91520000D02*
X211090000Y-81280000D01*
X198350000Y-81280000D02*
X211090000Y-81280000D01*
X198350000Y-91520000D02*
X198350000Y-81280000D01*
X197970000Y-91900000D02*
X197970000Y-88900000D01*
X200970000Y-91900000D02*
X197970000Y-91900000D01*
X198350000Y-111840000D02*
X211090000Y-111840000D01*
X211090000Y-111840000D02*
X211090000Y-101600000D01*
X198350000Y-101600000D02*
X211090000Y-101600000D01*
X198350000Y-111840000D02*
X198350000Y-101600000D01*
X198350000Y-111840000D02*
X211090000Y-111840000D01*
X211090000Y-111840000D02*
X211090000Y-101600000D01*
X198350000Y-101600000D02*
X211090000Y-101600000D01*
X198350000Y-111840000D02*
X198350000Y-101600000D01*
X197970000Y-112220000D02*
X197970000Y-109220000D01*
X200970000Y-112220000D02*
X197970000Y-112220000D01*
D11*
X88566666Y-65912380D02*
X88566666Y-66626666D01*
X88519047Y-66769523D01*
X88423809Y-66864761D01*
X88280952Y-66912380D01*
X88185714Y-66912380D01*
X89566666Y-66912380D02*
X88995238Y-66912380D01*
X89280952Y-66912380D02*
X89280952Y-65912380D01*
X89185714Y-66055238D01*
X89090476Y-66150476D01*
X88995238Y-66198095D01*
X61896666Y-93852380D02*
X61896666Y-94566666D01*
X61849047Y-94709523D01*
X61753809Y-94804761D01*
X61610952Y-94852380D01*
X61515714Y-94852380D01*
X62325238Y-93947619D02*
X62372857Y-93900000D01*
X62468095Y-93852380D01*
X62706190Y-93852380D01*
X62801428Y-93900000D01*
X62849047Y-93947619D01*
X62896666Y-94042857D01*
X62896666Y-94138095D01*
X62849047Y-94280952D01*
X62277619Y-94852380D01*
X62896666Y-94852380D01*
X101266666Y-93852380D02*
X101266666Y-94566666D01*
X101219047Y-94709523D01*
X101123809Y-94804761D01*
X100980952Y-94852380D01*
X100885714Y-94852380D01*
X101647619Y-93852380D02*
X102266666Y-93852380D01*
X101933333Y-94233333D01*
X102076190Y-94233333D01*
X102171428Y-94280952D01*
X102219047Y-94328571D01*
X102266666Y-94423809D01*
X102266666Y-94661904D01*
X102219047Y-94757142D01*
X102171428Y-94804761D01*
X102076190Y-94852380D01*
X101790476Y-94852380D01*
X101695238Y-94804761D01*
X101647619Y-94757142D01*
X121586666Y-67182380D02*
X121586666Y-67896666D01*
X121539047Y-68039523D01*
X121443809Y-68134761D01*
X121300952Y-68182380D01*
X121205714Y-68182380D01*
X122491428Y-67515714D02*
X122491428Y-68182380D01*
X122253333Y-67134761D02*
X122015238Y-67849047D01*
X122634285Y-67849047D01*
X144446666Y-82002380D02*
X144446666Y-82716666D01*
X144399047Y-82859523D01*
X144303809Y-82954761D01*
X144160952Y-83002380D01*
X144065714Y-83002380D01*
X145399047Y-82002380D02*
X144922857Y-82002380D01*
X144875238Y-82478571D01*
X144922857Y-82430952D01*
X145018095Y-82383333D01*
X145256190Y-82383333D01*
X145351428Y-82430952D01*
X145399047Y-82478571D01*
X145446666Y-82573809D01*
X145446666Y-82811904D01*
X145399047Y-82907142D01*
X145351428Y-82954761D01*
X145256190Y-83002380D01*
X145018095Y-83002380D01*
X144922857Y-82954761D01*
X144875238Y-82907142D01*
X140636666Y-100822380D02*
X140636666Y-101536666D01*
X140589047Y-101679523D01*
X140493809Y-101774761D01*
X140350952Y-101822380D01*
X140255714Y-101822380D01*
X141541428Y-100822380D02*
X141350952Y-100822380D01*
X141255714Y-100870000D01*
X141208095Y-100917619D01*
X141112857Y-101060476D01*
X141065238Y-101250952D01*
X141065238Y-101631904D01*
X141112857Y-101727142D01*
X141160476Y-101774761D01*
X141255714Y-101822380D01*
X141446190Y-101822380D01*
X141541428Y-101774761D01*
X141589047Y-101727142D01*
X141636666Y-101631904D01*
X141636666Y-101393809D01*
X141589047Y-101298571D01*
X141541428Y-101250952D01*
X141446190Y-101203333D01*
X141255714Y-101203333D01*
X141160476Y-101250952D01*
X141112857Y-101298571D01*
X141065238Y-101393809D01*
X181276666Y-100822380D02*
X181276666Y-101536666D01*
X181229047Y-101679523D01*
X181133809Y-101774761D01*
X180990952Y-101822380D01*
X180895714Y-101822380D01*
X181657619Y-100822380D02*
X182324285Y-100822380D01*
X181895714Y-101822380D01*
X181276666Y-83042380D02*
X181276666Y-83756666D01*
X181229047Y-83899523D01*
X181133809Y-83994761D01*
X180990952Y-84042380D01*
X180895714Y-84042380D01*
X181895714Y-83470952D02*
X181800476Y-83423333D01*
X181752857Y-83375714D01*
X181705238Y-83280476D01*
X181705238Y-83232857D01*
X181752857Y-83137619D01*
X181800476Y-83090000D01*
X181895714Y-83042380D01*
X182086190Y-83042380D01*
X182181428Y-83090000D01*
X182229047Y-83137619D01*
X182276666Y-83232857D01*
X182276666Y-83280476D01*
X182229047Y-83375714D01*
X182181428Y-83423333D01*
X182086190Y-83470952D01*
X181895714Y-83470952D01*
X181800476Y-83518571D01*
X181752857Y-83566190D01*
X181705238Y-83661428D01*
X181705238Y-83851904D01*
X181752857Y-83947142D01*
X181800476Y-83994761D01*
X181895714Y-84042380D01*
X182086190Y-84042380D01*
X182181428Y-83994761D01*
X182229047Y-83947142D01*
X182276666Y-83851904D01*
X182276666Y-83661428D01*
X182229047Y-83566190D01*
X182181428Y-83518571D01*
X182086190Y-83470952D01*
X196722380Y-89233333D02*
X197436666Y-89233333D01*
X197579523Y-89280952D01*
X197674761Y-89376190D01*
X197722380Y-89519047D01*
X197722380Y-89614285D01*
X197722380Y-88709523D02*
X197722380Y-88519047D01*
X197674761Y-88423809D01*
X197627142Y-88376190D01*
X197484285Y-88280952D01*
X197293809Y-88233333D01*
X196912857Y-88233333D01*
X196817619Y-88280952D01*
X196770000Y-88328571D01*
X196722380Y-88423809D01*
X196722380Y-88614285D01*
X196770000Y-88709523D01*
X196817619Y-88757142D01*
X196912857Y-88804761D01*
X197150952Y-88804761D01*
X197246190Y-88757142D01*
X197293809Y-88709523D01*
X197341428Y-88614285D01*
X197341428Y-88423809D01*
X197293809Y-88328571D01*
X197246190Y-88280952D01*
X197150952Y-88233333D01*
X196722380Y-110029523D02*
X197436666Y-110029523D01*
X197579523Y-110077142D01*
X197674761Y-110172380D01*
X197722380Y-110315238D01*
X197722380Y-110410476D01*
X197722380Y-109029523D02*
X197722380Y-109600952D01*
X197722380Y-109315238D02*
X196722380Y-109315238D01*
X196865238Y-109410476D01*
X196960476Y-109505714D01*
X197008095Y-109600952D01*
X196722380Y-108410476D02*
X196722380Y-108315238D01*
X196770000Y-108220000D01*
X196817619Y-108172380D01*
X196912857Y-108124761D01*
X197103333Y-108077142D01*
X197341428Y-108077142D01*
X197531904Y-108124761D01*
X197627142Y-108172380D01*
X197674761Y-108220000D01*
X197722380Y-108315238D01*
X197722380Y-108410476D01*
X197674761Y-108505714D01*
X197627142Y-108553333D01*
X197531904Y-108600952D01*
X197341428Y-108648571D01*
X197103333Y-108648571D01*
X196912857Y-108600952D01*
X196817619Y-108553333D01*
X196770000Y-108505714D01*
X196722380Y-108410476D01*
M02*
