G04 #@! TF.GenerationSoftware,KiCad,Pcbnew,(5.1.5)-1*
G04 #@! TF.CreationDate,2020-02-15T15:22:27-05:00*
G04 #@! TF.ProjectId,potencia,706f7465-6e63-4696-912e-6b696361645f,rev?*
G04 #@! TF.SameCoordinates,Original*
G04 #@! TF.FileFunction,Soldermask,Bot*
G04 #@! TF.FilePolarity,Negative*
%FSLAX46Y46*%
G04 Gerber Fmt 4.6, Leading zero omitted, Abs format (unit mm)*
G04 Created by KiCad (PCBNEW (5.1.5)-1) date 2020-02-15 15:22:27*
%MOMM*%
%LPD*%
G04 APERTURE LIST*
%ADD10C,0.100000*%
G04 APERTURE END LIST*
D10*
G36*
X206021000Y-110771000D02*
G01*
X202919000Y-110771000D01*
X202919000Y-107669000D01*
X206021000Y-107669000D01*
X206021000Y-110771000D01*
G37*
G36*
X204772585Y-102698802D02*
G01*
X204922410Y-102728604D01*
X205204674Y-102845521D01*
X205458705Y-103015259D01*
X205674741Y-103231295D01*
X205844479Y-103485326D01*
X205961396Y-103767590D01*
X206021000Y-104067240D01*
X206021000Y-104372760D01*
X205961396Y-104672410D01*
X205844479Y-104954674D01*
X205674741Y-105208705D01*
X205458705Y-105424741D01*
X205204674Y-105594479D01*
X204922410Y-105711396D01*
X204772585Y-105741198D01*
X204622761Y-105771000D01*
X204317239Y-105771000D01*
X204167415Y-105741198D01*
X204017590Y-105711396D01*
X203735326Y-105594479D01*
X203481295Y-105424741D01*
X203265259Y-105208705D01*
X203095521Y-104954674D01*
X202978604Y-104672410D01*
X202919000Y-104372760D01*
X202919000Y-104067240D01*
X202978604Y-103767590D01*
X203095521Y-103485326D01*
X203265259Y-103231295D01*
X203481295Y-103015259D01*
X203735326Y-102845521D01*
X204017590Y-102728604D01*
X204167415Y-102698802D01*
X204317239Y-102669000D01*
X204622761Y-102669000D01*
X204772585Y-102698802D01*
G37*
G36*
X182511000Y-105041000D02*
G01*
X180709000Y-105041000D01*
X180709000Y-103239000D01*
X182511000Y-103239000D01*
X182511000Y-105041000D01*
G37*
G36*
X141871000Y-105041000D02*
G01*
X140069000Y-105041000D01*
X140069000Y-103239000D01*
X141871000Y-103239000D01*
X141871000Y-105041000D01*
G37*
G36*
X116902585Y-100078802D02*
G01*
X117052410Y-100108604D01*
X117334674Y-100225521D01*
X117588705Y-100395259D01*
X117804741Y-100611295D01*
X117974479Y-100865326D01*
X118091396Y-101147590D01*
X118151000Y-101447240D01*
X118151000Y-101752760D01*
X118091396Y-102052410D01*
X117974479Y-102334674D01*
X117804741Y-102588705D01*
X117588705Y-102804741D01*
X117334674Y-102974479D01*
X117052410Y-103091396D01*
X116902585Y-103121198D01*
X116752761Y-103151000D01*
X116447239Y-103151000D01*
X116297415Y-103121198D01*
X116147590Y-103091396D01*
X115865326Y-102974479D01*
X115611295Y-102804741D01*
X115395259Y-102588705D01*
X115225521Y-102334674D01*
X115108604Y-102052410D01*
X115049000Y-101752760D01*
X115049000Y-101447240D01*
X115108604Y-101147590D01*
X115225521Y-100865326D01*
X115395259Y-100611295D01*
X115611295Y-100395259D01*
X115865326Y-100225521D01*
X116147590Y-100108604D01*
X116297415Y-100078802D01*
X116447239Y-100049000D01*
X116752761Y-100049000D01*
X116902585Y-100078802D01*
G37*
G36*
X103151000Y-103151000D02*
G01*
X100049000Y-103151000D01*
X100049000Y-100049000D01*
X103151000Y-100049000D01*
X103151000Y-103151000D01*
G37*
G36*
X106902585Y-100078802D02*
G01*
X107052410Y-100108604D01*
X107334674Y-100225521D01*
X107588705Y-100395259D01*
X107804741Y-100611295D01*
X107974479Y-100865326D01*
X108091396Y-101147590D01*
X108151000Y-101447240D01*
X108151000Y-101752760D01*
X108091396Y-102052410D01*
X107974479Y-102334674D01*
X107804741Y-102588705D01*
X107588705Y-102804741D01*
X107334674Y-102974479D01*
X107052410Y-103091396D01*
X106902585Y-103121198D01*
X106752761Y-103151000D01*
X106447239Y-103151000D01*
X106297415Y-103121198D01*
X106147590Y-103091396D01*
X105865326Y-102974479D01*
X105611295Y-102804741D01*
X105395259Y-102588705D01*
X105225521Y-102334674D01*
X105108604Y-102052410D01*
X105049000Y-101752760D01*
X105049000Y-101447240D01*
X105108604Y-101147590D01*
X105225521Y-100865326D01*
X105395259Y-100611295D01*
X105611295Y-100395259D01*
X105865326Y-100225521D01*
X106147590Y-100108604D01*
X106297415Y-100078802D01*
X106447239Y-100049000D01*
X106752761Y-100049000D01*
X106902585Y-100078802D01*
G37*
G36*
X111902585Y-100078802D02*
G01*
X112052410Y-100108604D01*
X112334674Y-100225521D01*
X112588705Y-100395259D01*
X112804741Y-100611295D01*
X112974479Y-100865326D01*
X113091396Y-101147590D01*
X113151000Y-101447240D01*
X113151000Y-101752760D01*
X113091396Y-102052410D01*
X112974479Y-102334674D01*
X112804741Y-102588705D01*
X112588705Y-102804741D01*
X112334674Y-102974479D01*
X112052410Y-103091396D01*
X111902585Y-103121198D01*
X111752761Y-103151000D01*
X111447239Y-103151000D01*
X111297415Y-103121198D01*
X111147590Y-103091396D01*
X110865326Y-102974479D01*
X110611295Y-102804741D01*
X110395259Y-102588705D01*
X110225521Y-102334674D01*
X110108604Y-102052410D01*
X110049000Y-101752760D01*
X110049000Y-101447240D01*
X110108604Y-101147590D01*
X110225521Y-100865326D01*
X110395259Y-100611295D01*
X110611295Y-100395259D01*
X110865326Y-100225521D01*
X111147590Y-100108604D01*
X111297415Y-100078802D01*
X111447239Y-100049000D01*
X111752761Y-100049000D01*
X111902585Y-100078802D01*
G37*
G36*
X121902585Y-100078802D02*
G01*
X122052410Y-100108604D01*
X122334674Y-100225521D01*
X122588705Y-100395259D01*
X122804741Y-100611295D01*
X122974479Y-100865326D01*
X123091396Y-101147590D01*
X123151000Y-101447240D01*
X123151000Y-101752760D01*
X123091396Y-102052410D01*
X122974479Y-102334674D01*
X122804741Y-102588705D01*
X122588705Y-102804741D01*
X122334674Y-102974479D01*
X122052410Y-103091396D01*
X121902585Y-103121198D01*
X121752761Y-103151000D01*
X121447239Y-103151000D01*
X121297415Y-103121198D01*
X121147590Y-103091396D01*
X120865326Y-102974479D01*
X120611295Y-102804741D01*
X120395259Y-102588705D01*
X120225521Y-102334674D01*
X120108604Y-102052410D01*
X120049000Y-101752760D01*
X120049000Y-101447240D01*
X120108604Y-101147590D01*
X120225521Y-100865326D01*
X120395259Y-100611295D01*
X120611295Y-100395259D01*
X120865326Y-100225521D01*
X121147590Y-100108604D01*
X121297415Y-100078802D01*
X121447239Y-100049000D01*
X121752761Y-100049000D01*
X121902585Y-100078802D01*
G37*
G36*
X87532585Y-100078802D02*
G01*
X87682410Y-100108604D01*
X87964674Y-100225521D01*
X88218705Y-100395259D01*
X88434741Y-100611295D01*
X88604479Y-100865326D01*
X88721396Y-101147590D01*
X88781000Y-101447240D01*
X88781000Y-101752760D01*
X88721396Y-102052410D01*
X88604479Y-102334674D01*
X88434741Y-102588705D01*
X88218705Y-102804741D01*
X87964674Y-102974479D01*
X87682410Y-103091396D01*
X87532585Y-103121198D01*
X87382761Y-103151000D01*
X87077239Y-103151000D01*
X86927415Y-103121198D01*
X86777590Y-103091396D01*
X86495326Y-102974479D01*
X86241295Y-102804741D01*
X86025259Y-102588705D01*
X85855521Y-102334674D01*
X85738604Y-102052410D01*
X85679000Y-101752760D01*
X85679000Y-101447240D01*
X85738604Y-101147590D01*
X85855521Y-100865326D01*
X86025259Y-100611295D01*
X86241295Y-100395259D01*
X86495326Y-100225521D01*
X86777590Y-100108604D01*
X86927415Y-100078802D01*
X87077239Y-100049000D01*
X87382761Y-100049000D01*
X87532585Y-100078802D01*
G37*
G36*
X82532585Y-100078802D02*
G01*
X82682410Y-100108604D01*
X82964674Y-100225521D01*
X83218705Y-100395259D01*
X83434741Y-100611295D01*
X83604479Y-100865326D01*
X83721396Y-101147590D01*
X83781000Y-101447240D01*
X83781000Y-101752760D01*
X83721396Y-102052410D01*
X83604479Y-102334674D01*
X83434741Y-102588705D01*
X83218705Y-102804741D01*
X82964674Y-102974479D01*
X82682410Y-103091396D01*
X82532585Y-103121198D01*
X82382761Y-103151000D01*
X82077239Y-103151000D01*
X81927415Y-103121198D01*
X81777590Y-103091396D01*
X81495326Y-102974479D01*
X81241295Y-102804741D01*
X81025259Y-102588705D01*
X80855521Y-102334674D01*
X80738604Y-102052410D01*
X80679000Y-101752760D01*
X80679000Y-101447240D01*
X80738604Y-101147590D01*
X80855521Y-100865326D01*
X81025259Y-100611295D01*
X81241295Y-100395259D01*
X81495326Y-100225521D01*
X81777590Y-100108604D01*
X81927415Y-100078802D01*
X82077239Y-100049000D01*
X82382761Y-100049000D01*
X82532585Y-100078802D01*
G37*
G36*
X77532585Y-100078802D02*
G01*
X77682410Y-100108604D01*
X77964674Y-100225521D01*
X78218705Y-100395259D01*
X78434741Y-100611295D01*
X78604479Y-100865326D01*
X78721396Y-101147590D01*
X78781000Y-101447240D01*
X78781000Y-101752760D01*
X78721396Y-102052410D01*
X78604479Y-102334674D01*
X78434741Y-102588705D01*
X78218705Y-102804741D01*
X77964674Y-102974479D01*
X77682410Y-103091396D01*
X77532585Y-103121198D01*
X77382761Y-103151000D01*
X77077239Y-103151000D01*
X76927415Y-103121198D01*
X76777590Y-103091396D01*
X76495326Y-102974479D01*
X76241295Y-102804741D01*
X76025259Y-102588705D01*
X75855521Y-102334674D01*
X75738604Y-102052410D01*
X75679000Y-101752760D01*
X75679000Y-101447240D01*
X75738604Y-101147590D01*
X75855521Y-100865326D01*
X76025259Y-100611295D01*
X76241295Y-100395259D01*
X76495326Y-100225521D01*
X76777590Y-100108604D01*
X76927415Y-100078802D01*
X77077239Y-100049000D01*
X77382761Y-100049000D01*
X77532585Y-100078802D01*
G37*
G36*
X72532585Y-100078802D02*
G01*
X72682410Y-100108604D01*
X72964674Y-100225521D01*
X73218705Y-100395259D01*
X73434741Y-100611295D01*
X73604479Y-100865326D01*
X73721396Y-101147590D01*
X73781000Y-101447240D01*
X73781000Y-101752760D01*
X73721396Y-102052410D01*
X73604479Y-102334674D01*
X73434741Y-102588705D01*
X73218705Y-102804741D01*
X72964674Y-102974479D01*
X72682410Y-103091396D01*
X72532585Y-103121198D01*
X72382761Y-103151000D01*
X72077239Y-103151000D01*
X71927415Y-103121198D01*
X71777590Y-103091396D01*
X71495326Y-102974479D01*
X71241295Y-102804741D01*
X71025259Y-102588705D01*
X70855521Y-102334674D01*
X70738604Y-102052410D01*
X70679000Y-101752760D01*
X70679000Y-101447240D01*
X70738604Y-101147590D01*
X70855521Y-100865326D01*
X71025259Y-100611295D01*
X71241295Y-100395259D01*
X71495326Y-100225521D01*
X71777590Y-100108604D01*
X71927415Y-100078802D01*
X72077239Y-100049000D01*
X72382761Y-100049000D01*
X72532585Y-100078802D01*
G37*
G36*
X67532585Y-100078802D02*
G01*
X67682410Y-100108604D01*
X67964674Y-100225521D01*
X68218705Y-100395259D01*
X68434741Y-100611295D01*
X68604479Y-100865326D01*
X68721396Y-101147590D01*
X68781000Y-101447240D01*
X68781000Y-101752760D01*
X68721396Y-102052410D01*
X68604479Y-102334674D01*
X68434741Y-102588705D01*
X68218705Y-102804741D01*
X67964674Y-102974479D01*
X67682410Y-103091396D01*
X67532585Y-103121198D01*
X67382761Y-103151000D01*
X67077239Y-103151000D01*
X66927415Y-103121198D01*
X66777590Y-103091396D01*
X66495326Y-102974479D01*
X66241295Y-102804741D01*
X66025259Y-102588705D01*
X65855521Y-102334674D01*
X65738604Y-102052410D01*
X65679000Y-101752760D01*
X65679000Y-101447240D01*
X65738604Y-101147590D01*
X65855521Y-100865326D01*
X66025259Y-100611295D01*
X66241295Y-100395259D01*
X66495326Y-100225521D01*
X66777590Y-100108604D01*
X66927415Y-100078802D01*
X67077239Y-100049000D01*
X67382761Y-100049000D01*
X67532585Y-100078802D01*
G37*
G36*
X63781000Y-103151000D02*
G01*
X60679000Y-103151000D01*
X60679000Y-100049000D01*
X63781000Y-100049000D01*
X63781000Y-103151000D01*
G37*
G36*
X126902585Y-100078802D02*
G01*
X127052410Y-100108604D01*
X127334674Y-100225521D01*
X127588705Y-100395259D01*
X127804741Y-100611295D01*
X127974479Y-100865326D01*
X128091396Y-101147590D01*
X128151000Y-101447240D01*
X128151000Y-101752760D01*
X128091396Y-102052410D01*
X127974479Y-102334674D01*
X127804741Y-102588705D01*
X127588705Y-102804741D01*
X127334674Y-102974479D01*
X127052410Y-103091396D01*
X126902585Y-103121198D01*
X126752761Y-103151000D01*
X126447239Y-103151000D01*
X126297415Y-103121198D01*
X126147590Y-103091396D01*
X125865326Y-102974479D01*
X125611295Y-102804741D01*
X125395259Y-102588705D01*
X125225521Y-102334674D01*
X125108604Y-102052410D01*
X125049000Y-101752760D01*
X125049000Y-101447240D01*
X125108604Y-101147590D01*
X125225521Y-100865326D01*
X125395259Y-100611295D01*
X125611295Y-100395259D01*
X125865326Y-100225521D01*
X126147590Y-100108604D01*
X126297415Y-100078802D01*
X126447239Y-100049000D01*
X126752761Y-100049000D01*
X126902585Y-100078802D01*
G37*
G36*
X206021000Y-90451000D02*
G01*
X202919000Y-90451000D01*
X202919000Y-87349000D01*
X206021000Y-87349000D01*
X206021000Y-90451000D01*
G37*
G36*
X182511000Y-87261000D02*
G01*
X180709000Y-87261000D01*
X180709000Y-85459000D01*
X182511000Y-85459000D01*
X182511000Y-87261000D01*
G37*
G36*
X141871000Y-87261000D02*
G01*
X140069000Y-87261000D01*
X140069000Y-85459000D01*
X141871000Y-85459000D01*
X141871000Y-87261000D01*
G37*
G36*
X204772585Y-82378802D02*
G01*
X204922410Y-82408604D01*
X205204674Y-82525521D01*
X205458705Y-82695259D01*
X205674741Y-82911295D01*
X205844479Y-83165326D01*
X205961396Y-83447590D01*
X206021000Y-83747240D01*
X206021000Y-84052760D01*
X205961396Y-84352410D01*
X205844479Y-84634674D01*
X205674741Y-84888705D01*
X205458705Y-85104741D01*
X205204674Y-85274479D01*
X204922410Y-85391396D01*
X204772585Y-85421198D01*
X204622761Y-85451000D01*
X204317239Y-85451000D01*
X204167415Y-85421198D01*
X204017590Y-85391396D01*
X203735326Y-85274479D01*
X203481295Y-85104741D01*
X203265259Y-84888705D01*
X203095521Y-84634674D01*
X202978604Y-84352410D01*
X202919000Y-84052760D01*
X202919000Y-83747240D01*
X202978604Y-83447590D01*
X203095521Y-83165326D01*
X203265259Y-82911295D01*
X203481295Y-82695259D01*
X203735326Y-82525521D01*
X204017590Y-82408604D01*
X204167415Y-82378802D01*
X204317239Y-82349000D01*
X204622761Y-82349000D01*
X204772585Y-82378802D01*
G37*
G36*
X127222585Y-73408802D02*
G01*
X127372410Y-73438604D01*
X127654674Y-73555521D01*
X127908705Y-73725259D01*
X128124741Y-73941295D01*
X128294479Y-74195326D01*
X128377050Y-74394672D01*
X128411396Y-74477591D01*
X128471000Y-74777239D01*
X128471000Y-75082761D01*
X128445492Y-75211000D01*
X128411396Y-75382410D01*
X128294479Y-75664674D01*
X128124741Y-75918705D01*
X127908705Y-76134741D01*
X127654674Y-76304479D01*
X127372410Y-76421396D01*
X127222585Y-76451198D01*
X127072761Y-76481000D01*
X126767239Y-76481000D01*
X126617415Y-76451198D01*
X126467590Y-76421396D01*
X126185326Y-76304479D01*
X125931295Y-76134741D01*
X125715259Y-75918705D01*
X125545521Y-75664674D01*
X125428604Y-75382410D01*
X125394508Y-75211000D01*
X125369000Y-75082761D01*
X125369000Y-74777239D01*
X125428604Y-74477591D01*
X125462950Y-74394672D01*
X125545521Y-74195326D01*
X125715259Y-73941295D01*
X125931295Y-73725259D01*
X126185326Y-73555521D01*
X126467590Y-73438604D01*
X126617415Y-73408802D01*
X126767239Y-73379000D01*
X127072761Y-73379000D01*
X127222585Y-73408802D01*
G37*
G36*
X123471000Y-76481000D02*
G01*
X120369000Y-76481000D01*
X120369000Y-73379000D01*
X123471000Y-73379000D01*
X123471000Y-76481000D01*
G37*
G36*
X94202585Y-72138802D02*
G01*
X94352410Y-72168604D01*
X94634674Y-72285521D01*
X94888705Y-72455259D01*
X95104741Y-72671295D01*
X95274479Y-72925326D01*
X95391396Y-73207590D01*
X95391396Y-73207591D01*
X95437348Y-73438604D01*
X95451000Y-73507240D01*
X95451000Y-73812760D01*
X95391396Y-74112410D01*
X95274479Y-74394674D01*
X95104741Y-74648705D01*
X94888705Y-74864741D01*
X94634674Y-75034479D01*
X94352410Y-75151396D01*
X94202585Y-75181198D01*
X94052761Y-75211000D01*
X93747239Y-75211000D01*
X93597415Y-75181198D01*
X93447590Y-75151396D01*
X93165326Y-75034479D01*
X92911295Y-74864741D01*
X92695259Y-74648705D01*
X92525521Y-74394674D01*
X92408604Y-74112410D01*
X92349000Y-73812760D01*
X92349000Y-73507240D01*
X92362653Y-73438604D01*
X92408604Y-73207591D01*
X92408604Y-73207590D01*
X92525521Y-72925326D01*
X92695259Y-72671295D01*
X92911295Y-72455259D01*
X93165326Y-72285521D01*
X93447590Y-72168604D01*
X93597415Y-72138802D01*
X93747239Y-72109000D01*
X94052761Y-72109000D01*
X94202585Y-72138802D01*
G37*
G36*
X90451000Y-75211000D02*
G01*
X87349000Y-75211000D01*
X87349000Y-72109000D01*
X90451000Y-72109000D01*
X90451000Y-75211000D01*
G37*
M02*
