G04 #@! TF.GenerationSoftware,KiCad,Pcbnew,(5.1.5)-1*
G04 #@! TF.CreationDate,2020-02-15T15:22:27-05:00*
G04 #@! TF.ProjectId,potencia,706f7465-6e63-4696-912e-6b696361645f,rev?*
G04 #@! TF.SameCoordinates,Original*
G04 #@! TF.FileFunction,Other,User*
%FSLAX46Y46*%
G04 Gerber Fmt 4.6, Leading zero omitted, Abs format (unit mm)*
G04 Created by KiCad (PCBNEW (5.1.5)-1) date 2020-02-15 15:22:27*
%MOMM*%
%LPD*%
G04 APERTURE LIST*
%ADD10C,0.050000*%
G04 APERTURE END LIST*
D10*
X86150000Y-67410000D02*
X96650000Y-67410000D01*
X96650000Y-67410000D02*
X96650000Y-80410000D01*
X86150000Y-80410000D02*
X96650000Y-80410000D01*
X86150000Y-67410000D02*
X86150000Y-80410000D01*
X59480000Y-95350000D02*
X89980000Y-95350000D01*
X89980000Y-95350000D02*
X89980000Y-108350000D01*
X59480000Y-108350000D02*
X89980000Y-108350000D01*
X59480000Y-95350000D02*
X59480000Y-108350000D01*
X98850000Y-95350000D02*
X98850000Y-108350000D01*
X98850000Y-108350000D02*
X129350000Y-108350000D01*
X129350000Y-95350000D02*
X129350000Y-108350000D01*
X98850000Y-95350000D02*
X129350000Y-95350000D01*
X119170000Y-68680000D02*
X129670000Y-68680000D01*
X129670000Y-68680000D02*
X129670000Y-81680000D01*
X119170000Y-81680000D02*
X129670000Y-81680000D01*
X119170000Y-68680000D02*
X119170000Y-81680000D01*
X139170000Y-84560000D02*
X142720000Y-84560000D01*
X142720000Y-84560000D02*
X142720000Y-88110000D01*
X142720000Y-88110000D02*
X139170000Y-88110000D01*
X139170000Y-88110000D02*
X139170000Y-84560000D01*
X139170000Y-105890000D02*
X139170000Y-102340000D01*
X142720000Y-105890000D02*
X139170000Y-105890000D01*
X142720000Y-102340000D02*
X142720000Y-105890000D01*
X139170000Y-102340000D02*
X142720000Y-102340000D01*
X179810000Y-102340000D02*
X183360000Y-102340000D01*
X183360000Y-102340000D02*
X183360000Y-105890000D01*
X183360000Y-105890000D02*
X179810000Y-105890000D01*
X179810000Y-105890000D02*
X179810000Y-102340000D01*
X179810000Y-88110000D02*
X179810000Y-84560000D01*
X183360000Y-88110000D02*
X179810000Y-88110000D01*
X183360000Y-84560000D02*
X183360000Y-88110000D01*
X179810000Y-84560000D02*
X183360000Y-84560000D01*
X198220000Y-91650000D02*
X211220000Y-91650000D01*
X211220000Y-91650000D02*
X211220000Y-81150000D01*
X198220000Y-81150000D02*
X211220000Y-81150000D01*
X198220000Y-91650000D02*
X198220000Y-81150000D01*
X198220000Y-111970000D02*
X211220000Y-111970000D01*
X211220000Y-111970000D02*
X211220000Y-101470000D01*
X198220000Y-101470000D02*
X211220000Y-101470000D01*
X198220000Y-111970000D02*
X198220000Y-101470000D01*
M02*
