G04 #@! TF.GenerationSoftware,KiCad,Pcbnew,(5.1.5)-1*
G04 #@! TF.CreationDate,2020-02-15T15:22:26-05:00*
G04 #@! TF.ProjectId,potencia,706f7465-6e63-4696-912e-6b696361645f,rev?*
G04 #@! TF.SameCoordinates,Original*
G04 #@! TF.FileFunction,Copper,L1,Top*
G04 #@! TF.FilePolarity,Positive*
%FSLAX46Y46*%
G04 Gerber Fmt 4.6, Leading zero omitted, Abs format (unit mm)*
G04 Created by KiCad (PCBNEW (5.1.5)-1) date 2020-02-15 15:22:26*
%MOMM*%
%LPD*%
G04 APERTURE LIST*
%ADD10C,0.700000*%
%ADD11R,3.000000X3.000000*%
%ADD12C,3.000000*%
%ADD13R,1.700000X1.700000*%
G04 APERTURE END LIST*
D10*
X119184285Y-112831904D02*
X120850952Y-117831904D01*
X122517619Y-112831904D01*
X124184285Y-117831904D02*
X124184285Y-112831904D01*
X125850952Y-112831904D02*
X128708095Y-112831904D01*
X127279523Y-117831904D02*
X127279523Y-112831904D01*
X133231904Y-117831904D02*
X131565238Y-115450952D01*
X130374761Y-117831904D02*
X130374761Y-112831904D01*
X132279523Y-112831904D01*
X132755714Y-113070000D01*
X132993809Y-113308095D01*
X133231904Y-113784285D01*
X133231904Y-114498571D01*
X132993809Y-114974761D01*
X132755714Y-115212857D01*
X132279523Y-115450952D01*
X130374761Y-115450952D01*
X136327142Y-112831904D02*
X137279523Y-112831904D01*
X137755714Y-113070000D01*
X138231904Y-113546190D01*
X138470000Y-114498571D01*
X138470000Y-116165238D01*
X138231904Y-117117619D01*
X137755714Y-117593809D01*
X137279523Y-117831904D01*
X136327142Y-117831904D01*
X135850952Y-117593809D01*
X135374761Y-117117619D01*
X135136666Y-116165238D01*
X135136666Y-114498571D01*
X135374761Y-113546190D01*
X135850952Y-113070000D01*
X136327142Y-112831904D01*
X140374761Y-116403333D02*
X142755714Y-116403333D01*
X139898571Y-117831904D02*
X141565238Y-112831904D01*
X143231904Y-117831904D01*
X147755714Y-117355714D02*
X147517619Y-117593809D01*
X146803333Y-117831904D01*
X146327142Y-117831904D01*
X145612857Y-117593809D01*
X145136666Y-117117619D01*
X144898571Y-116641428D01*
X144660476Y-115689047D01*
X144660476Y-114974761D01*
X144898571Y-114022380D01*
X145136666Y-113546190D01*
X145612857Y-113070000D01*
X146327142Y-112831904D01*
X146803333Y-112831904D01*
X147517619Y-113070000D01*
X147755714Y-113308095D01*
X152755714Y-117355714D02*
X152517619Y-117593809D01*
X151803333Y-117831904D01*
X151327142Y-117831904D01*
X150612857Y-117593809D01*
X150136666Y-117117619D01*
X149898571Y-116641428D01*
X149660476Y-115689047D01*
X149660476Y-114974761D01*
X149898571Y-114022380D01*
X150136666Y-113546190D01*
X150612857Y-113070000D01*
X151327142Y-112831904D01*
X151803333Y-112831904D01*
X152517619Y-113070000D01*
X152755714Y-113308095D01*
X154898571Y-112831904D02*
X154898571Y-116879523D01*
X155136666Y-117355714D01*
X155374761Y-117593809D01*
X155850952Y-117831904D01*
X156803333Y-117831904D01*
X157279523Y-117593809D01*
X157517619Y-117355714D01*
X157755714Y-116879523D01*
X157755714Y-112831904D01*
X159898571Y-116403333D02*
X162279523Y-116403333D01*
X159422380Y-117831904D02*
X161089047Y-112831904D01*
X162755714Y-117831904D01*
D11*
X88900000Y-73660000D03*
D12*
X93900000Y-73660000D03*
D11*
X62230000Y-101600000D03*
D12*
X67230000Y-101600000D03*
X72230000Y-101600000D03*
X77230000Y-101600000D03*
X82230000Y-101600000D03*
X87230000Y-101600000D03*
X126600000Y-101600000D03*
X121600000Y-101600000D03*
X116600000Y-101600000D03*
X111600000Y-101600000D03*
X106600000Y-101600000D03*
D11*
X101600000Y-101600000D03*
X121920000Y-74930000D03*
D12*
X126920000Y-74930000D03*
D13*
X140970000Y-86360000D03*
X140970000Y-104140000D03*
X181610000Y-104140000D03*
X181610000Y-86360000D03*
D12*
X204470000Y-83900000D03*
D11*
X204470000Y-88900000D03*
D12*
X204470000Y-104220000D03*
D11*
X204470000Y-109220000D03*
M02*
