G04 #@! TF.GenerationSoftware,KiCad,Pcbnew,(5.1.5)-1*
G04 #@! TF.CreationDate,2020-02-15T15:22:26-05:00*
G04 #@! TF.ProjectId,potencia,706f7465-6e63-4696-912e-6b696361645f,rev?*
G04 #@! TF.SameCoordinates,Original*
G04 #@! TF.FileFunction,Copper,L2,Bot*
G04 #@! TF.FilePolarity,Positive*
%FSLAX46Y46*%
G04 Gerber Fmt 4.6, Leading zero omitted, Abs format (unit mm)*
G04 Created by KiCad (PCBNEW (5.1.5)-1) date 2020-02-15 15:22:26*
%MOMM*%
%LPD*%
G04 APERTURE LIST*
%ADD10R,3.000000X3.000000*%
%ADD11C,3.000000*%
%ADD12R,1.700000X1.700000*%
%ADD13C,2.000000*%
G04 APERTURE END LIST*
D10*
X88900000Y-73660000D03*
D11*
X93900000Y-73660000D03*
D10*
X62230000Y-101600000D03*
D11*
X67230000Y-101600000D03*
X72230000Y-101600000D03*
X77230000Y-101600000D03*
X82230000Y-101600000D03*
X87230000Y-101600000D03*
X126600000Y-101600000D03*
X121600000Y-101600000D03*
X116600000Y-101600000D03*
X111600000Y-101600000D03*
X106600000Y-101600000D03*
D10*
X101600000Y-101600000D03*
X121920000Y-74930000D03*
D11*
X126920000Y-74930000D03*
D12*
X140970000Y-86360000D03*
X140970000Y-104140000D03*
X181610000Y-104140000D03*
X181610000Y-86360000D03*
D11*
X204470000Y-83900000D03*
D10*
X204470000Y-88900000D03*
D11*
X204470000Y-104220000D03*
D10*
X204470000Y-109220000D03*
D13*
X88900000Y-99930000D02*
X87230000Y-101600000D01*
X88900000Y-73660000D02*
X88900000Y-99930000D01*
X87230000Y-101600000D02*
X82230000Y-101600000D01*
X82230000Y-101600000D02*
X77230000Y-101600000D01*
X77230000Y-101600000D02*
X72230000Y-101600000D01*
X72230000Y-101600000D02*
X67230000Y-101600000D01*
X67230000Y-101600000D02*
X62230000Y-101600000D01*
X93900000Y-75781320D02*
X93980000Y-75861320D01*
X93900000Y-73660000D02*
X93900000Y-75781320D01*
X93980000Y-75861320D02*
X93980000Y-101600000D01*
X93980000Y-101600000D02*
X101600000Y-101600000D01*
X101600000Y-101600000D02*
X105410000Y-101600000D01*
X106600000Y-101600000D02*
X111600000Y-101600000D01*
X111600000Y-101600000D02*
X116600000Y-101600000D01*
X116600000Y-101600000D02*
X121600000Y-101600000D01*
X121600000Y-101600000D02*
X126600000Y-101600000D01*
X133350000Y-88900000D02*
X134620000Y-90170000D01*
X134620000Y-90170000D02*
X134620000Y-104140000D01*
X121920000Y-74930000D02*
X121920000Y-88900000D01*
X134620000Y-104140000D02*
X140970000Y-104140000D01*
X121920000Y-88900000D02*
X133350000Y-88900000D01*
X126920000Y-74930000D02*
X139700000Y-74930000D01*
X140970000Y-76200000D02*
X140970000Y-86360000D01*
X139700000Y-74930000D02*
X140970000Y-76200000D01*
X183840000Y-109220000D02*
X200970000Y-109220000D01*
X181610000Y-106990000D02*
X183840000Y-109220000D01*
X200970000Y-109220000D02*
X204470000Y-109220000D01*
X181610000Y-104140000D02*
X181610000Y-106990000D01*
X184460000Y-104140000D02*
X181610000Y-104140000D01*
X192730000Y-104140000D02*
X184460000Y-104140000D01*
X204470000Y-92400000D02*
X192730000Y-104140000D01*
X204470000Y-88900000D02*
X204470000Y-92400000D01*
X181610000Y-86360000D02*
X184460000Y-86360000D01*
X186920000Y-83900000D02*
X204470000Y-83900000D01*
X184460000Y-86360000D02*
X186920000Y-83900000D01*
X206591320Y-83900000D02*
X212090000Y-89398680D01*
X204470000Y-83900000D02*
X206591320Y-83900000D01*
X212090000Y-96600000D02*
X204470000Y-104220000D01*
X212090000Y-89398680D02*
X212090000Y-96600000D01*
M02*
