G04 #@! TF.GenerationSoftware,KiCad,Pcbnew,(5.1.5)-1*
G04 #@! TF.CreationDate,2020-02-15T15:22:27-05:00*
G04 #@! TF.ProjectId,potencia,706f7465-6e63-4696-912e-6b696361645f,rev?*
G04 #@! TF.SameCoordinates,Original*
G04 #@! TF.FileFunction,Other,Fab,Top*
%FSLAX46Y46*%
G04 Gerber Fmt 4.6, Leading zero omitted, Abs format (unit mm)*
G04 Created by KiCad (PCBNEW (5.1.5)-1) date 2020-02-15 15:22:27*
%MOMM*%
%LPD*%
G04 APERTURE LIST*
%ADD10C,0.100000*%
%ADD11C,0.150000*%
G04 APERTURE END LIST*
D10*
X86900000Y-67660000D02*
X96400000Y-67660000D01*
X96400000Y-67660000D02*
X96400000Y-80160000D01*
X96400000Y-80160000D02*
X86400000Y-80160000D01*
X86400000Y-80160000D02*
X86400000Y-68160000D01*
X86400000Y-68160000D02*
X86900000Y-67660000D01*
X60230000Y-95600000D02*
X89730000Y-95600000D01*
X89730000Y-95600000D02*
X89730000Y-108100000D01*
X89730000Y-108100000D02*
X59730000Y-108100000D01*
X59730000Y-108100000D02*
X59730000Y-96100000D01*
X59730000Y-96100000D02*
X60230000Y-95600000D01*
X99100000Y-96100000D02*
X99600000Y-95600000D01*
X99100000Y-108100000D02*
X99100000Y-96100000D01*
X129100000Y-108100000D02*
X99100000Y-108100000D01*
X129100000Y-95600000D02*
X129100000Y-108100000D01*
X99600000Y-95600000D02*
X129100000Y-95600000D01*
X119920000Y-68930000D02*
X129420000Y-68930000D01*
X129420000Y-68930000D02*
X129420000Y-81430000D01*
X129420000Y-81430000D02*
X119420000Y-81430000D01*
X119420000Y-81430000D02*
X119420000Y-69430000D01*
X119420000Y-69430000D02*
X119920000Y-68930000D01*
X139700000Y-85090000D02*
X141605000Y-85090000D01*
X141605000Y-85090000D02*
X142240000Y-85725000D01*
X142240000Y-85725000D02*
X142240000Y-87630000D01*
X142240000Y-87630000D02*
X139700000Y-87630000D01*
X139700000Y-87630000D02*
X139700000Y-85090000D01*
X139700000Y-105410000D02*
X139700000Y-102870000D01*
X142240000Y-105410000D02*
X139700000Y-105410000D01*
X142240000Y-103505000D02*
X142240000Y-105410000D01*
X141605000Y-102870000D02*
X142240000Y-103505000D01*
X139700000Y-102870000D02*
X141605000Y-102870000D01*
X180340000Y-102870000D02*
X182245000Y-102870000D01*
X182245000Y-102870000D02*
X182880000Y-103505000D01*
X182880000Y-103505000D02*
X182880000Y-105410000D01*
X182880000Y-105410000D02*
X180340000Y-105410000D01*
X180340000Y-105410000D02*
X180340000Y-102870000D01*
X180340000Y-87630000D02*
X180340000Y-85090000D01*
X182880000Y-87630000D02*
X180340000Y-87630000D01*
X182880000Y-85725000D02*
X182880000Y-87630000D01*
X182245000Y-85090000D02*
X182880000Y-85725000D01*
X180340000Y-85090000D02*
X182245000Y-85090000D01*
X198970000Y-91400000D02*
X198470000Y-90900000D01*
X210970000Y-91400000D02*
X198970000Y-91400000D01*
X210970000Y-81400000D02*
X210970000Y-91400000D01*
X198470000Y-81400000D02*
X210970000Y-81400000D01*
X198470000Y-90900000D02*
X198470000Y-81400000D01*
X198970000Y-111720000D02*
X198470000Y-111220000D01*
X210970000Y-111720000D02*
X198970000Y-111720000D01*
X210970000Y-101720000D02*
X210970000Y-111720000D01*
X198470000Y-101720000D02*
X210970000Y-101720000D01*
X198470000Y-111220000D02*
X198470000Y-101720000D01*
D11*
X84542857Y-81088571D02*
X84876190Y-81088571D01*
X85019047Y-81612380D02*
X84542857Y-81612380D01*
X84542857Y-80612380D01*
X85019047Y-80612380D01*
X85447619Y-80945714D02*
X85447619Y-81612380D01*
X85447619Y-81040952D02*
X85495238Y-80993333D01*
X85590476Y-80945714D01*
X85733333Y-80945714D01*
X85828571Y-80993333D01*
X85876190Y-81088571D01*
X85876190Y-81612380D01*
X86209523Y-80945714D02*
X86590476Y-80945714D01*
X86352380Y-80612380D02*
X86352380Y-81469523D01*
X86400000Y-81564761D01*
X86495238Y-81612380D01*
X86590476Y-81612380D01*
X86923809Y-81612380D02*
X86923809Y-80945714D01*
X86923809Y-81136190D02*
X86971428Y-81040952D01*
X87019047Y-80993333D01*
X87114285Y-80945714D01*
X87209523Y-80945714D01*
X87971428Y-81612380D02*
X87971428Y-81088571D01*
X87923809Y-80993333D01*
X87828571Y-80945714D01*
X87638095Y-80945714D01*
X87542857Y-80993333D01*
X87971428Y-81564761D02*
X87876190Y-81612380D01*
X87638095Y-81612380D01*
X87542857Y-81564761D01*
X87495238Y-81469523D01*
X87495238Y-81374285D01*
X87542857Y-81279047D01*
X87638095Y-81231428D01*
X87876190Y-81231428D01*
X87971428Y-81183809D01*
X88876190Y-81612380D02*
X88876190Y-80612380D01*
X88876190Y-81564761D02*
X88780952Y-81612380D01*
X88590476Y-81612380D01*
X88495238Y-81564761D01*
X88447619Y-81517142D01*
X88400000Y-81421904D01*
X88400000Y-81136190D01*
X88447619Y-81040952D01*
X88495238Y-80993333D01*
X88590476Y-80945714D01*
X88780952Y-80945714D01*
X88876190Y-80993333D01*
X89780952Y-81612380D02*
X89780952Y-81088571D01*
X89733333Y-80993333D01*
X89638095Y-80945714D01*
X89447619Y-80945714D01*
X89352380Y-80993333D01*
X89780952Y-81564761D02*
X89685714Y-81612380D01*
X89447619Y-81612380D01*
X89352380Y-81564761D01*
X89304761Y-81469523D01*
X89304761Y-81374285D01*
X89352380Y-81279047D01*
X89447619Y-81231428D01*
X89685714Y-81231428D01*
X89780952Y-81183809D01*
X91542857Y-81612380D02*
X90971428Y-81612380D01*
X91257142Y-81612380D02*
X91257142Y-80612380D01*
X91161904Y-80755238D01*
X91066666Y-80850476D01*
X90971428Y-80898095D01*
X91923809Y-80707619D02*
X91971428Y-80660000D01*
X92066666Y-80612380D01*
X92304761Y-80612380D01*
X92400000Y-80660000D01*
X92447619Y-80707619D01*
X92495238Y-80802857D01*
X92495238Y-80898095D01*
X92447619Y-81040952D01*
X91876190Y-81612380D01*
X92495238Y-81612380D01*
X93542857Y-80612380D02*
X93876190Y-81612380D01*
X94209523Y-80612380D01*
X94685714Y-81612380D02*
X94590476Y-81564761D01*
X94542857Y-81517142D01*
X94495238Y-81421904D01*
X94495238Y-81136190D01*
X94542857Y-81040952D01*
X94590476Y-80993333D01*
X94685714Y-80945714D01*
X94828571Y-80945714D01*
X94923809Y-80993333D01*
X94971428Y-81040952D01*
X95019047Y-81136190D01*
X95019047Y-81421904D01*
X94971428Y-81517142D01*
X94923809Y-81564761D01*
X94828571Y-81612380D01*
X94685714Y-81612380D01*
X95590476Y-81612380D02*
X95495238Y-81564761D01*
X95447619Y-81469523D01*
X95447619Y-80612380D01*
X95828571Y-80945714D02*
X96209523Y-80945714D01*
X95971428Y-80612380D02*
X95971428Y-81469523D01*
X96019047Y-81564761D01*
X96114285Y-81612380D01*
X96209523Y-81612380D01*
X96542857Y-81612380D02*
X96542857Y-80945714D01*
X96542857Y-80612380D02*
X96495238Y-80660000D01*
X96542857Y-80707619D01*
X96590476Y-80660000D01*
X96542857Y-80612380D01*
X96542857Y-80707619D01*
X97161904Y-81612380D02*
X97066666Y-81564761D01*
X97019047Y-81517142D01*
X96971428Y-81421904D01*
X96971428Y-81136190D01*
X97019047Y-81040952D01*
X97066666Y-80993333D01*
X97161904Y-80945714D01*
X97304761Y-80945714D01*
X97400000Y-80993333D01*
X97447619Y-81040952D01*
X97495238Y-81136190D01*
X97495238Y-81421904D01*
X97447619Y-81517142D01*
X97400000Y-81564761D01*
X97304761Y-81612380D01*
X97161904Y-81612380D01*
X97876190Y-81564761D02*
X97971428Y-81612380D01*
X98161904Y-81612380D01*
X98257142Y-81564761D01*
X98304761Y-81469523D01*
X98304761Y-81421904D01*
X98257142Y-81326666D01*
X98161904Y-81279047D01*
X98019047Y-81279047D01*
X97923809Y-81231428D01*
X97876190Y-81136190D01*
X97876190Y-81088571D01*
X97923809Y-80993333D01*
X98019047Y-80945714D01*
X98161904Y-80945714D01*
X98257142Y-80993333D01*
X91066666Y-73362380D02*
X91066666Y-74076666D01*
X91019047Y-74219523D01*
X90923809Y-74314761D01*
X90780952Y-74362380D01*
X90685714Y-74362380D01*
X92066666Y-74362380D02*
X91495238Y-74362380D01*
X91780952Y-74362380D02*
X91780952Y-73362380D01*
X91685714Y-73505238D01*
X91590476Y-73600476D01*
X91495238Y-73648095D01*
X70491904Y-109171428D02*
X71253809Y-109171428D01*
X70872857Y-109552380D02*
X70872857Y-108790476D01*
X72253809Y-109552380D02*
X71682380Y-109552380D01*
X71968095Y-109552380D02*
X71968095Y-108552380D01*
X71872857Y-108695238D01*
X71777619Y-108790476D01*
X71682380Y-108838095D01*
X72634761Y-108647619D02*
X72682380Y-108600000D01*
X72777619Y-108552380D01*
X73015714Y-108552380D01*
X73110952Y-108600000D01*
X73158571Y-108647619D01*
X73206190Y-108742857D01*
X73206190Y-108838095D01*
X73158571Y-108980952D01*
X72587142Y-109552380D01*
X73206190Y-109552380D01*
X74253809Y-108552380D02*
X74587142Y-109552380D01*
X74920476Y-108552380D01*
X75396666Y-109552380D02*
X75301428Y-109504761D01*
X75253809Y-109457142D01*
X75206190Y-109361904D01*
X75206190Y-109076190D01*
X75253809Y-108980952D01*
X75301428Y-108933333D01*
X75396666Y-108885714D01*
X75539523Y-108885714D01*
X75634761Y-108933333D01*
X75682380Y-108980952D01*
X75730000Y-109076190D01*
X75730000Y-109361904D01*
X75682380Y-109457142D01*
X75634761Y-109504761D01*
X75539523Y-109552380D01*
X75396666Y-109552380D01*
X76301428Y-109552380D02*
X76206190Y-109504761D01*
X76158571Y-109409523D01*
X76158571Y-108552380D01*
X76539523Y-108885714D02*
X76920476Y-108885714D01*
X76682380Y-108552380D02*
X76682380Y-109409523D01*
X76730000Y-109504761D01*
X76825238Y-109552380D01*
X76920476Y-109552380D01*
X77253809Y-109552380D02*
X77253809Y-108885714D01*
X77253809Y-108552380D02*
X77206190Y-108600000D01*
X77253809Y-108647619D01*
X77301428Y-108600000D01*
X77253809Y-108552380D01*
X77253809Y-108647619D01*
X77872857Y-109552380D02*
X77777619Y-109504761D01*
X77730000Y-109457142D01*
X77682380Y-109361904D01*
X77682380Y-109076190D01*
X77730000Y-108980952D01*
X77777619Y-108933333D01*
X77872857Y-108885714D01*
X78015714Y-108885714D01*
X78110952Y-108933333D01*
X78158571Y-108980952D01*
X78206190Y-109076190D01*
X78206190Y-109361904D01*
X78158571Y-109457142D01*
X78110952Y-109504761D01*
X78015714Y-109552380D01*
X77872857Y-109552380D01*
X78587142Y-109504761D02*
X78682380Y-109552380D01*
X78872857Y-109552380D01*
X78968095Y-109504761D01*
X79015714Y-109409523D01*
X79015714Y-109361904D01*
X78968095Y-109266666D01*
X78872857Y-109219047D01*
X78730000Y-109219047D01*
X78634761Y-109171428D01*
X78587142Y-109076190D01*
X78587142Y-109028571D01*
X78634761Y-108933333D01*
X78730000Y-108885714D01*
X78872857Y-108885714D01*
X78968095Y-108933333D01*
X74396666Y-101302380D02*
X74396666Y-102016666D01*
X74349047Y-102159523D01*
X74253809Y-102254761D01*
X74110952Y-102302380D01*
X74015714Y-102302380D01*
X74825238Y-101397619D02*
X74872857Y-101350000D01*
X74968095Y-101302380D01*
X75206190Y-101302380D01*
X75301428Y-101350000D01*
X75349047Y-101397619D01*
X75396666Y-101492857D01*
X75396666Y-101588095D01*
X75349047Y-101730952D01*
X74777619Y-102302380D01*
X75396666Y-102302380D01*
X103838095Y-108600000D02*
X103742857Y-108552380D01*
X103600000Y-108552380D01*
X103457142Y-108600000D01*
X103361904Y-108695238D01*
X103314285Y-108790476D01*
X103266666Y-108980952D01*
X103266666Y-109123809D01*
X103314285Y-109314285D01*
X103361904Y-109409523D01*
X103457142Y-109504761D01*
X103600000Y-109552380D01*
X103695238Y-109552380D01*
X103838095Y-109504761D01*
X103885714Y-109457142D01*
X103885714Y-109123809D01*
X103695238Y-109123809D01*
X104314285Y-109552380D02*
X104314285Y-108552380D01*
X104885714Y-109552380D01*
X104885714Y-108552380D01*
X105361904Y-109552380D02*
X105361904Y-108552380D01*
X105600000Y-108552380D01*
X105742857Y-108600000D01*
X105838095Y-108695238D01*
X105885714Y-108790476D01*
X105933333Y-108980952D01*
X105933333Y-109123809D01*
X105885714Y-109314285D01*
X105838095Y-109409523D01*
X105742857Y-109504761D01*
X105600000Y-109552380D01*
X105361904Y-109552380D01*
X106980952Y-108552380D02*
X107552380Y-108552380D01*
X107266666Y-109552380D02*
X107266666Y-108552380D01*
X107885714Y-109552380D02*
X107885714Y-108885714D01*
X107885714Y-108552380D02*
X107838095Y-108600000D01*
X107885714Y-108647619D01*
X107933333Y-108600000D01*
X107885714Y-108552380D01*
X107885714Y-108647619D01*
X108742857Y-109504761D02*
X108647619Y-109552380D01*
X108457142Y-109552380D01*
X108361904Y-109504761D01*
X108314285Y-109409523D01*
X108314285Y-109028571D01*
X108361904Y-108933333D01*
X108457142Y-108885714D01*
X108647619Y-108885714D01*
X108742857Y-108933333D01*
X108790476Y-109028571D01*
X108790476Y-109123809D01*
X108314285Y-109219047D01*
X109219047Y-109552380D02*
X109219047Y-108885714D01*
X109219047Y-109076190D02*
X109266666Y-108980952D01*
X109314285Y-108933333D01*
X109409523Y-108885714D01*
X109504761Y-108885714D01*
X109838095Y-109552380D02*
X109838095Y-108885714D01*
X109838095Y-109076190D02*
X109885714Y-108980952D01*
X109933333Y-108933333D01*
X110028571Y-108885714D01*
X110123809Y-108885714D01*
X110885714Y-109552380D02*
X110885714Y-109028571D01*
X110838095Y-108933333D01*
X110742857Y-108885714D01*
X110552380Y-108885714D01*
X110457142Y-108933333D01*
X110885714Y-109504761D02*
X110790476Y-109552380D01*
X110552380Y-109552380D01*
X110457142Y-109504761D01*
X110409523Y-109409523D01*
X110409523Y-109314285D01*
X110457142Y-109219047D01*
X110552380Y-109171428D01*
X110790476Y-109171428D01*
X110885714Y-109123809D01*
X112552380Y-109552380D02*
X112552380Y-108552380D01*
X112552380Y-109504761D02*
X112457142Y-109552380D01*
X112266666Y-109552380D01*
X112171428Y-109504761D01*
X112123809Y-109457142D01*
X112076190Y-109361904D01*
X112076190Y-109076190D01*
X112123809Y-108980952D01*
X112171428Y-108933333D01*
X112266666Y-108885714D01*
X112457142Y-108885714D01*
X112552380Y-108933333D01*
X113409523Y-109504761D02*
X113314285Y-109552380D01*
X113123809Y-109552380D01*
X113028571Y-109504761D01*
X112980952Y-109409523D01*
X112980952Y-109028571D01*
X113028571Y-108933333D01*
X113123809Y-108885714D01*
X113314285Y-108885714D01*
X113409523Y-108933333D01*
X113457142Y-109028571D01*
X113457142Y-109123809D01*
X112980952Y-109219047D01*
X114790476Y-109552380D02*
X114695238Y-109504761D01*
X114647619Y-109409523D01*
X114647619Y-108552380D01*
X115314285Y-109552380D02*
X115219047Y-109504761D01*
X115171428Y-109457142D01*
X115123809Y-109361904D01*
X115123809Y-109076190D01*
X115171428Y-108980952D01*
X115219047Y-108933333D01*
X115314285Y-108885714D01*
X115457142Y-108885714D01*
X115552380Y-108933333D01*
X115600000Y-108980952D01*
X115647619Y-109076190D01*
X115647619Y-109361904D01*
X115600000Y-109457142D01*
X115552380Y-109504761D01*
X115457142Y-109552380D01*
X115314285Y-109552380D01*
X116028571Y-109504761D02*
X116123809Y-109552380D01*
X116314285Y-109552380D01*
X116409523Y-109504761D01*
X116457142Y-109409523D01*
X116457142Y-109361904D01*
X116409523Y-109266666D01*
X116314285Y-109219047D01*
X116171428Y-109219047D01*
X116076190Y-109171428D01*
X116028571Y-109076190D01*
X116028571Y-109028571D01*
X116076190Y-108933333D01*
X116171428Y-108885714D01*
X116314285Y-108885714D01*
X116409523Y-108933333D01*
X118171428Y-109552380D02*
X117600000Y-109552380D01*
X117885714Y-109552380D02*
X117885714Y-108552380D01*
X117790476Y-108695238D01*
X117695238Y-108790476D01*
X117600000Y-108838095D01*
X118552380Y-108647619D02*
X118600000Y-108600000D01*
X118695238Y-108552380D01*
X118933333Y-108552380D01*
X119028571Y-108600000D01*
X119076190Y-108647619D01*
X119123809Y-108742857D01*
X119123809Y-108838095D01*
X119076190Y-108980952D01*
X118504761Y-109552380D01*
X119123809Y-109552380D01*
X120171428Y-108552380D02*
X120504761Y-109552380D01*
X120838095Y-108552380D01*
X121314285Y-109552380D02*
X121219047Y-109504761D01*
X121171428Y-109457142D01*
X121123809Y-109361904D01*
X121123809Y-109076190D01*
X121171428Y-108980952D01*
X121219047Y-108933333D01*
X121314285Y-108885714D01*
X121457142Y-108885714D01*
X121552380Y-108933333D01*
X121600000Y-108980952D01*
X121647619Y-109076190D01*
X121647619Y-109361904D01*
X121600000Y-109457142D01*
X121552380Y-109504761D01*
X121457142Y-109552380D01*
X121314285Y-109552380D01*
X122219047Y-109552380D02*
X122123809Y-109504761D01*
X122076190Y-109409523D01*
X122076190Y-108552380D01*
X122457142Y-108885714D02*
X122838095Y-108885714D01*
X122600000Y-108552380D02*
X122600000Y-109409523D01*
X122647619Y-109504761D01*
X122742857Y-109552380D01*
X122838095Y-109552380D01*
X123171428Y-109552380D02*
X123171428Y-108885714D01*
X123171428Y-108552380D02*
X123123809Y-108600000D01*
X123171428Y-108647619D01*
X123219047Y-108600000D01*
X123171428Y-108552380D01*
X123171428Y-108647619D01*
X123790476Y-109552380D02*
X123695238Y-109504761D01*
X123647619Y-109457142D01*
X123600000Y-109361904D01*
X123600000Y-109076190D01*
X123647619Y-108980952D01*
X123695238Y-108933333D01*
X123790476Y-108885714D01*
X123933333Y-108885714D01*
X124028571Y-108933333D01*
X124076190Y-108980952D01*
X124123809Y-109076190D01*
X124123809Y-109361904D01*
X124076190Y-109457142D01*
X124028571Y-109504761D01*
X123933333Y-109552380D01*
X123790476Y-109552380D01*
X124504761Y-109504761D02*
X124600000Y-109552380D01*
X124790476Y-109552380D01*
X124885714Y-109504761D01*
X124933333Y-109409523D01*
X124933333Y-109361904D01*
X124885714Y-109266666D01*
X124790476Y-109219047D01*
X124647619Y-109219047D01*
X124552380Y-109171428D01*
X124504761Y-109076190D01*
X124504761Y-109028571D01*
X124552380Y-108933333D01*
X124647619Y-108885714D01*
X124790476Y-108885714D01*
X124885714Y-108933333D01*
X113766666Y-101302380D02*
X113766666Y-102016666D01*
X113719047Y-102159523D01*
X113623809Y-102254761D01*
X113480952Y-102302380D01*
X113385714Y-102302380D01*
X114147619Y-101302380D02*
X114766666Y-101302380D01*
X114433333Y-101683333D01*
X114576190Y-101683333D01*
X114671428Y-101730952D01*
X114719047Y-101778571D01*
X114766666Y-101873809D01*
X114766666Y-102111904D01*
X114719047Y-102207142D01*
X114671428Y-102254761D01*
X114576190Y-102302380D01*
X114290476Y-102302380D01*
X114195238Y-102254761D01*
X114147619Y-102207142D01*
X117562857Y-82358571D02*
X117896190Y-82358571D01*
X118039047Y-82882380D02*
X117562857Y-82882380D01*
X117562857Y-81882380D01*
X118039047Y-81882380D01*
X118467619Y-82215714D02*
X118467619Y-82882380D01*
X118467619Y-82310952D02*
X118515238Y-82263333D01*
X118610476Y-82215714D01*
X118753333Y-82215714D01*
X118848571Y-82263333D01*
X118896190Y-82358571D01*
X118896190Y-82882380D01*
X119229523Y-82215714D02*
X119610476Y-82215714D01*
X119372380Y-81882380D02*
X119372380Y-82739523D01*
X119420000Y-82834761D01*
X119515238Y-82882380D01*
X119610476Y-82882380D01*
X119943809Y-82882380D02*
X119943809Y-82215714D01*
X119943809Y-82406190D02*
X119991428Y-82310952D01*
X120039047Y-82263333D01*
X120134285Y-82215714D01*
X120229523Y-82215714D01*
X120991428Y-82882380D02*
X120991428Y-82358571D01*
X120943809Y-82263333D01*
X120848571Y-82215714D01*
X120658095Y-82215714D01*
X120562857Y-82263333D01*
X120991428Y-82834761D02*
X120896190Y-82882380D01*
X120658095Y-82882380D01*
X120562857Y-82834761D01*
X120515238Y-82739523D01*
X120515238Y-82644285D01*
X120562857Y-82549047D01*
X120658095Y-82501428D01*
X120896190Y-82501428D01*
X120991428Y-82453809D01*
X121896190Y-82882380D02*
X121896190Y-81882380D01*
X121896190Y-82834761D02*
X121800952Y-82882380D01*
X121610476Y-82882380D01*
X121515238Y-82834761D01*
X121467619Y-82787142D01*
X121420000Y-82691904D01*
X121420000Y-82406190D01*
X121467619Y-82310952D01*
X121515238Y-82263333D01*
X121610476Y-82215714D01*
X121800952Y-82215714D01*
X121896190Y-82263333D01*
X122800952Y-82882380D02*
X122800952Y-82358571D01*
X122753333Y-82263333D01*
X122658095Y-82215714D01*
X122467619Y-82215714D01*
X122372380Y-82263333D01*
X122800952Y-82834761D02*
X122705714Y-82882380D01*
X122467619Y-82882380D01*
X122372380Y-82834761D01*
X122324761Y-82739523D01*
X122324761Y-82644285D01*
X122372380Y-82549047D01*
X122467619Y-82501428D01*
X122705714Y-82501428D01*
X122800952Y-82453809D01*
X124562857Y-82882380D02*
X123991428Y-82882380D01*
X124277142Y-82882380D02*
X124277142Y-81882380D01*
X124181904Y-82025238D01*
X124086666Y-82120476D01*
X123991428Y-82168095D01*
X124943809Y-81977619D02*
X124991428Y-81930000D01*
X125086666Y-81882380D01*
X125324761Y-81882380D01*
X125420000Y-81930000D01*
X125467619Y-81977619D01*
X125515238Y-82072857D01*
X125515238Y-82168095D01*
X125467619Y-82310952D01*
X124896190Y-82882380D01*
X125515238Y-82882380D01*
X126562857Y-81882380D02*
X126896190Y-82882380D01*
X127229523Y-81882380D01*
X127705714Y-82882380D02*
X127610476Y-82834761D01*
X127562857Y-82787142D01*
X127515238Y-82691904D01*
X127515238Y-82406190D01*
X127562857Y-82310952D01*
X127610476Y-82263333D01*
X127705714Y-82215714D01*
X127848571Y-82215714D01*
X127943809Y-82263333D01*
X127991428Y-82310952D01*
X128039047Y-82406190D01*
X128039047Y-82691904D01*
X127991428Y-82787142D01*
X127943809Y-82834761D01*
X127848571Y-82882380D01*
X127705714Y-82882380D01*
X128610476Y-82882380D02*
X128515238Y-82834761D01*
X128467619Y-82739523D01*
X128467619Y-81882380D01*
X128848571Y-82215714D02*
X129229523Y-82215714D01*
X128991428Y-81882380D02*
X128991428Y-82739523D01*
X129039047Y-82834761D01*
X129134285Y-82882380D01*
X129229523Y-82882380D01*
X129562857Y-82882380D02*
X129562857Y-82215714D01*
X129562857Y-81882380D02*
X129515238Y-81930000D01*
X129562857Y-81977619D01*
X129610476Y-81930000D01*
X129562857Y-81882380D01*
X129562857Y-81977619D01*
X130181904Y-82882380D02*
X130086666Y-82834761D01*
X130039047Y-82787142D01*
X129991428Y-82691904D01*
X129991428Y-82406190D01*
X130039047Y-82310952D01*
X130086666Y-82263333D01*
X130181904Y-82215714D01*
X130324761Y-82215714D01*
X130420000Y-82263333D01*
X130467619Y-82310952D01*
X130515238Y-82406190D01*
X130515238Y-82691904D01*
X130467619Y-82787142D01*
X130420000Y-82834761D01*
X130324761Y-82882380D01*
X130181904Y-82882380D01*
X130896190Y-82834761D02*
X130991428Y-82882380D01*
X131181904Y-82882380D01*
X131277142Y-82834761D01*
X131324761Y-82739523D01*
X131324761Y-82691904D01*
X131277142Y-82596666D01*
X131181904Y-82549047D01*
X131039047Y-82549047D01*
X130943809Y-82501428D01*
X130896190Y-82406190D01*
X130896190Y-82358571D01*
X130943809Y-82263333D01*
X131039047Y-82215714D01*
X131181904Y-82215714D01*
X131277142Y-82263333D01*
X124086666Y-74632380D02*
X124086666Y-75346666D01*
X124039047Y-75489523D01*
X123943809Y-75584761D01*
X123800952Y-75632380D01*
X123705714Y-75632380D01*
X124991428Y-74965714D02*
X124991428Y-75632380D01*
X124753333Y-74584761D02*
X124515238Y-75299047D01*
X125134285Y-75299047D01*
X144232380Y-88383809D02*
X145232380Y-88050476D01*
X144232380Y-87717142D01*
X145232380Y-87383809D02*
X144565714Y-87383809D01*
X144232380Y-87383809D02*
X144280000Y-87431428D01*
X144327619Y-87383809D01*
X144280000Y-87336190D01*
X144232380Y-87383809D01*
X144327619Y-87383809D01*
X144565714Y-86907619D02*
X145232380Y-86907619D01*
X144660952Y-86907619D02*
X144613333Y-86860000D01*
X144565714Y-86764761D01*
X144565714Y-86621904D01*
X144613333Y-86526666D01*
X144708571Y-86479047D01*
X145232380Y-86479047D01*
X144851428Y-85240952D02*
X144851428Y-84479047D01*
X145232380Y-84860000D02*
X144470476Y-84860000D01*
X140636666Y-85812380D02*
X140636666Y-86526666D01*
X140589047Y-86669523D01*
X140493809Y-86764761D01*
X140350952Y-86812380D01*
X140255714Y-86812380D01*
X141589047Y-85812380D02*
X141112857Y-85812380D01*
X141065238Y-86288571D01*
X141112857Y-86240952D01*
X141208095Y-86193333D01*
X141446190Y-86193333D01*
X141541428Y-86240952D01*
X141589047Y-86288571D01*
X141636666Y-86383809D01*
X141636666Y-86621904D01*
X141589047Y-86717142D01*
X141541428Y-86764761D01*
X141446190Y-86812380D01*
X141208095Y-86812380D01*
X141112857Y-86764761D01*
X141065238Y-86717142D01*
X144232380Y-106163809D02*
X145232380Y-105830476D01*
X144232380Y-105497142D01*
X145232380Y-105163809D02*
X144565714Y-105163809D01*
X144232380Y-105163809D02*
X144280000Y-105211428D01*
X144327619Y-105163809D01*
X144280000Y-105116190D01*
X144232380Y-105163809D01*
X144327619Y-105163809D01*
X144565714Y-104687619D02*
X145232380Y-104687619D01*
X144660952Y-104687619D02*
X144613333Y-104640000D01*
X144565714Y-104544761D01*
X144565714Y-104401904D01*
X144613333Y-104306666D01*
X144708571Y-104259047D01*
X145232380Y-104259047D01*
X144851428Y-103020952D02*
X144851428Y-102259047D01*
X140636666Y-103592380D02*
X140636666Y-104306666D01*
X140589047Y-104449523D01*
X140493809Y-104544761D01*
X140350952Y-104592380D01*
X140255714Y-104592380D01*
X141541428Y-103592380D02*
X141350952Y-103592380D01*
X141255714Y-103640000D01*
X141208095Y-103687619D01*
X141112857Y-103830476D01*
X141065238Y-104020952D01*
X141065238Y-104401904D01*
X141112857Y-104497142D01*
X141160476Y-104544761D01*
X141255714Y-104592380D01*
X141446190Y-104592380D01*
X141541428Y-104544761D01*
X141589047Y-104497142D01*
X141636666Y-104401904D01*
X141636666Y-104163809D01*
X141589047Y-104068571D01*
X141541428Y-104020952D01*
X141446190Y-103973333D01*
X141255714Y-103973333D01*
X141160476Y-104020952D01*
X141112857Y-104068571D01*
X141065238Y-104163809D01*
X186142380Y-106663809D02*
X187142380Y-106330476D01*
X186142380Y-105997142D01*
X187142380Y-105520952D02*
X187094761Y-105616190D01*
X187047142Y-105663809D01*
X186951904Y-105711428D01*
X186666190Y-105711428D01*
X186570952Y-105663809D01*
X186523333Y-105616190D01*
X186475714Y-105520952D01*
X186475714Y-105378095D01*
X186523333Y-105282857D01*
X186570952Y-105235238D01*
X186666190Y-105187619D01*
X186951904Y-105187619D01*
X187047142Y-105235238D01*
X187094761Y-105282857D01*
X187142380Y-105378095D01*
X187142380Y-105520952D01*
X186475714Y-104330476D02*
X187142380Y-104330476D01*
X186475714Y-104759047D02*
X186999523Y-104759047D01*
X187094761Y-104711428D01*
X187142380Y-104616190D01*
X187142380Y-104473333D01*
X187094761Y-104378095D01*
X187047142Y-104330476D01*
X186475714Y-103997142D02*
X186475714Y-103616190D01*
X186142380Y-103854285D02*
X186999523Y-103854285D01*
X187094761Y-103806666D01*
X187142380Y-103711428D01*
X187142380Y-103616190D01*
X186761428Y-102520952D02*
X186761428Y-101759047D01*
X181276666Y-103592380D02*
X181276666Y-104306666D01*
X181229047Y-104449523D01*
X181133809Y-104544761D01*
X180990952Y-104592380D01*
X180895714Y-104592380D01*
X181657619Y-103592380D02*
X182324285Y-103592380D01*
X181895714Y-104592380D01*
X184872380Y-88883809D02*
X185872380Y-88550476D01*
X184872380Y-88217142D01*
X185872380Y-87740952D02*
X185824761Y-87836190D01*
X185777142Y-87883809D01*
X185681904Y-87931428D01*
X185396190Y-87931428D01*
X185300952Y-87883809D01*
X185253333Y-87836190D01*
X185205714Y-87740952D01*
X185205714Y-87598095D01*
X185253333Y-87502857D01*
X185300952Y-87455238D01*
X185396190Y-87407619D01*
X185681904Y-87407619D01*
X185777142Y-87455238D01*
X185824761Y-87502857D01*
X185872380Y-87598095D01*
X185872380Y-87740952D01*
X185205714Y-86550476D02*
X185872380Y-86550476D01*
X185205714Y-86979047D02*
X185729523Y-86979047D01*
X185824761Y-86931428D01*
X185872380Y-86836190D01*
X185872380Y-86693333D01*
X185824761Y-86598095D01*
X185777142Y-86550476D01*
X185205714Y-86217142D02*
X185205714Y-85836190D01*
X184872380Y-86074285D02*
X185729523Y-86074285D01*
X185824761Y-86026666D01*
X185872380Y-85931428D01*
X185872380Y-85836190D01*
X185491428Y-84740952D02*
X185491428Y-83979047D01*
X185872380Y-84360000D02*
X185110476Y-84360000D01*
X181276666Y-85812380D02*
X181276666Y-86526666D01*
X181229047Y-86669523D01*
X181133809Y-86764761D01*
X180990952Y-86812380D01*
X180895714Y-86812380D01*
X181895714Y-86240952D02*
X181800476Y-86193333D01*
X181752857Y-86145714D01*
X181705238Y-86050476D01*
X181705238Y-86002857D01*
X181752857Y-85907619D01*
X181800476Y-85860000D01*
X181895714Y-85812380D01*
X182086190Y-85812380D01*
X182181428Y-85860000D01*
X182229047Y-85907619D01*
X182276666Y-86002857D01*
X182276666Y-86050476D01*
X182229047Y-86145714D01*
X182181428Y-86193333D01*
X182086190Y-86240952D01*
X181895714Y-86240952D01*
X181800476Y-86288571D01*
X181752857Y-86336190D01*
X181705238Y-86431428D01*
X181705238Y-86621904D01*
X181752857Y-86717142D01*
X181800476Y-86764761D01*
X181895714Y-86812380D01*
X182086190Y-86812380D01*
X182181428Y-86764761D01*
X182229047Y-86717142D01*
X182276666Y-86621904D01*
X182276666Y-86431428D01*
X182229047Y-86336190D01*
X182181428Y-86288571D01*
X182086190Y-86240952D01*
X196231904Y-77636666D02*
X196708095Y-77636666D01*
X196136666Y-77922380D02*
X196470000Y-76922380D01*
X196803333Y-77922380D01*
X197279523Y-77922380D02*
X197184285Y-77874761D01*
X197136666Y-77779523D01*
X197136666Y-76922380D01*
X197660476Y-77922380D02*
X197660476Y-77255714D01*
X197660476Y-76922380D02*
X197612857Y-76970000D01*
X197660476Y-77017619D01*
X197708095Y-76970000D01*
X197660476Y-76922380D01*
X197660476Y-77017619D01*
X198136666Y-77922380D02*
X198136666Y-77255714D01*
X198136666Y-77350952D02*
X198184285Y-77303333D01*
X198279523Y-77255714D01*
X198422380Y-77255714D01*
X198517619Y-77303333D01*
X198565238Y-77398571D01*
X198565238Y-77922380D01*
X198565238Y-77398571D02*
X198612857Y-77303333D01*
X198708095Y-77255714D01*
X198850952Y-77255714D01*
X198946190Y-77303333D01*
X198993809Y-77398571D01*
X198993809Y-77922380D01*
X199850952Y-77874761D02*
X199755714Y-77922380D01*
X199565238Y-77922380D01*
X199470000Y-77874761D01*
X199422380Y-77779523D01*
X199422380Y-77398571D01*
X199470000Y-77303333D01*
X199565238Y-77255714D01*
X199755714Y-77255714D01*
X199850952Y-77303333D01*
X199898571Y-77398571D01*
X199898571Y-77493809D01*
X199422380Y-77589047D01*
X200327142Y-77255714D02*
X200327142Y-77922380D01*
X200327142Y-77350952D02*
X200374761Y-77303333D01*
X200470000Y-77255714D01*
X200612857Y-77255714D01*
X200708095Y-77303333D01*
X200755714Y-77398571D01*
X200755714Y-77922380D01*
X201089047Y-77255714D02*
X201470000Y-77255714D01*
X201231904Y-76922380D02*
X201231904Y-77779523D01*
X201279523Y-77874761D01*
X201374761Y-77922380D01*
X201470000Y-77922380D01*
X202231904Y-77922380D02*
X202231904Y-77398571D01*
X202184285Y-77303333D01*
X202089047Y-77255714D01*
X201898571Y-77255714D01*
X201803333Y-77303333D01*
X202231904Y-77874761D02*
X202136666Y-77922380D01*
X201898571Y-77922380D01*
X201803333Y-77874761D01*
X201755714Y-77779523D01*
X201755714Y-77684285D01*
X201803333Y-77589047D01*
X201898571Y-77541428D01*
X202136666Y-77541428D01*
X202231904Y-77493809D01*
X203136666Y-77874761D02*
X203041428Y-77922380D01*
X202850952Y-77922380D01*
X202755714Y-77874761D01*
X202708095Y-77827142D01*
X202660476Y-77731904D01*
X202660476Y-77446190D01*
X202708095Y-77350952D01*
X202755714Y-77303333D01*
X202850952Y-77255714D01*
X203041428Y-77255714D01*
X203136666Y-77303333D01*
X203565238Y-77922380D02*
X203565238Y-77255714D01*
X203565238Y-76922380D02*
X203517619Y-76970000D01*
X203565238Y-77017619D01*
X203612857Y-76970000D01*
X203565238Y-76922380D01*
X203565238Y-77017619D01*
X204184285Y-77922380D02*
X204089047Y-77874761D01*
X204041428Y-77827142D01*
X203993809Y-77731904D01*
X203993809Y-77446190D01*
X204041428Y-77350952D01*
X204089047Y-77303333D01*
X204184285Y-77255714D01*
X204327142Y-77255714D01*
X204422380Y-77303333D01*
X204470000Y-77350952D01*
X204517619Y-77446190D01*
X204517619Y-77731904D01*
X204470000Y-77827142D01*
X204422380Y-77874761D01*
X204327142Y-77922380D01*
X204184285Y-77922380D01*
X204374761Y-76874761D02*
X204231904Y-77017619D01*
X204946190Y-77255714D02*
X204946190Y-77922380D01*
X204946190Y-77350952D02*
X204993809Y-77303333D01*
X205089047Y-77255714D01*
X205231904Y-77255714D01*
X205327142Y-77303333D01*
X205374761Y-77398571D01*
X205374761Y-77922380D01*
X207184285Y-77922380D02*
X206850952Y-77446190D01*
X206612857Y-77922380D02*
X206612857Y-76922380D01*
X206993809Y-76922380D01*
X207089047Y-76970000D01*
X207136666Y-77017619D01*
X207184285Y-77112857D01*
X207184285Y-77255714D01*
X207136666Y-77350952D01*
X207089047Y-77398571D01*
X206993809Y-77446190D01*
X206612857Y-77446190D01*
X207993809Y-77874761D02*
X207898571Y-77922380D01*
X207708095Y-77922380D01*
X207612857Y-77874761D01*
X207565238Y-77779523D01*
X207565238Y-77398571D01*
X207612857Y-77303333D01*
X207708095Y-77255714D01*
X207898571Y-77255714D01*
X207993809Y-77303333D01*
X208041428Y-77398571D01*
X208041428Y-77493809D01*
X207565238Y-77589047D01*
X208612857Y-77922380D02*
X208517619Y-77874761D01*
X208470000Y-77779523D01*
X208470000Y-76922380D01*
X209374761Y-77874761D02*
X209279523Y-77922380D01*
X209089047Y-77922380D01*
X208993809Y-77874761D01*
X208946190Y-77779523D01*
X208946190Y-77398571D01*
X208993809Y-77303333D01*
X209089047Y-77255714D01*
X209279523Y-77255714D01*
X209374761Y-77303333D01*
X209422380Y-77398571D01*
X209422380Y-77493809D01*
X208946190Y-77589047D01*
X209803333Y-77874761D02*
X209898571Y-77922380D01*
X210089047Y-77922380D01*
X210184285Y-77874761D01*
X210231904Y-77779523D01*
X210231904Y-77731904D01*
X210184285Y-77636666D01*
X210089047Y-77589047D01*
X209946190Y-77589047D01*
X209850952Y-77541428D01*
X209803333Y-77446190D01*
X209803333Y-77398571D01*
X209850952Y-77303333D01*
X209946190Y-77255714D01*
X210089047Y-77255714D01*
X210184285Y-77303333D01*
X211898571Y-76922380D02*
X211422380Y-76922380D01*
X211374761Y-77398571D01*
X211422380Y-77350952D01*
X211517619Y-77303333D01*
X211755714Y-77303333D01*
X211850952Y-77350952D01*
X211898571Y-77398571D01*
X211946190Y-77493809D01*
X211946190Y-77731904D01*
X211898571Y-77827142D01*
X211850952Y-77874761D01*
X211755714Y-77922380D01*
X211517619Y-77922380D01*
X211422380Y-77874761D01*
X211374761Y-77827142D01*
X212279523Y-77255714D02*
X212517619Y-77922380D01*
X212755714Y-77255714D01*
X204172380Y-86733333D02*
X204886666Y-86733333D01*
X205029523Y-86780952D01*
X205124761Y-86876190D01*
X205172380Y-87019047D01*
X205172380Y-87114285D01*
X205172380Y-86209523D02*
X205172380Y-86019047D01*
X205124761Y-85923809D01*
X205077142Y-85876190D01*
X204934285Y-85780952D01*
X204743809Y-85733333D01*
X204362857Y-85733333D01*
X204267619Y-85780952D01*
X204220000Y-85828571D01*
X204172380Y-85923809D01*
X204172380Y-86114285D01*
X204220000Y-86209523D01*
X204267619Y-86257142D01*
X204362857Y-86304761D01*
X204600952Y-86304761D01*
X204696190Y-86257142D01*
X204743809Y-86209523D01*
X204791428Y-86114285D01*
X204791428Y-85923809D01*
X204743809Y-85828571D01*
X204696190Y-85780952D01*
X204600952Y-85733333D01*
X196740000Y-114466666D02*
X197216190Y-114466666D01*
X196644761Y-114752380D02*
X196978095Y-113752380D01*
X197311428Y-114752380D01*
X197787619Y-114752380D02*
X197692380Y-114704761D01*
X197644761Y-114609523D01*
X197644761Y-113752380D01*
X198168571Y-114752380D02*
X198168571Y-114085714D01*
X198168571Y-113752380D02*
X198120952Y-113800000D01*
X198168571Y-113847619D01*
X198216190Y-113800000D01*
X198168571Y-113752380D01*
X198168571Y-113847619D01*
X198644761Y-114752380D02*
X198644761Y-114085714D01*
X198644761Y-114180952D02*
X198692380Y-114133333D01*
X198787619Y-114085714D01*
X198930476Y-114085714D01*
X199025714Y-114133333D01*
X199073333Y-114228571D01*
X199073333Y-114752380D01*
X199073333Y-114228571D02*
X199120952Y-114133333D01*
X199216190Y-114085714D01*
X199359047Y-114085714D01*
X199454285Y-114133333D01*
X199501904Y-114228571D01*
X199501904Y-114752380D01*
X200359047Y-114704761D02*
X200263809Y-114752380D01*
X200073333Y-114752380D01*
X199978095Y-114704761D01*
X199930476Y-114609523D01*
X199930476Y-114228571D01*
X199978095Y-114133333D01*
X200073333Y-114085714D01*
X200263809Y-114085714D01*
X200359047Y-114133333D01*
X200406666Y-114228571D01*
X200406666Y-114323809D01*
X199930476Y-114419047D01*
X200835238Y-114085714D02*
X200835238Y-114752380D01*
X200835238Y-114180952D02*
X200882857Y-114133333D01*
X200978095Y-114085714D01*
X201120952Y-114085714D01*
X201216190Y-114133333D01*
X201263809Y-114228571D01*
X201263809Y-114752380D01*
X201597142Y-114085714D02*
X201978095Y-114085714D01*
X201740000Y-113752380D02*
X201740000Y-114609523D01*
X201787619Y-114704761D01*
X201882857Y-114752380D01*
X201978095Y-114752380D01*
X202740000Y-114752380D02*
X202740000Y-114228571D01*
X202692380Y-114133333D01*
X202597142Y-114085714D01*
X202406666Y-114085714D01*
X202311428Y-114133333D01*
X202740000Y-114704761D02*
X202644761Y-114752380D01*
X202406666Y-114752380D01*
X202311428Y-114704761D01*
X202263809Y-114609523D01*
X202263809Y-114514285D01*
X202311428Y-114419047D01*
X202406666Y-114371428D01*
X202644761Y-114371428D01*
X202740000Y-114323809D01*
X203644761Y-114704761D02*
X203549523Y-114752380D01*
X203359047Y-114752380D01*
X203263809Y-114704761D01*
X203216190Y-114657142D01*
X203168571Y-114561904D01*
X203168571Y-114276190D01*
X203216190Y-114180952D01*
X203263809Y-114133333D01*
X203359047Y-114085714D01*
X203549523Y-114085714D01*
X203644761Y-114133333D01*
X204073333Y-114752380D02*
X204073333Y-114085714D01*
X204073333Y-113752380D02*
X204025714Y-113800000D01*
X204073333Y-113847619D01*
X204120952Y-113800000D01*
X204073333Y-113752380D01*
X204073333Y-113847619D01*
X204692380Y-114752380D02*
X204597142Y-114704761D01*
X204549523Y-114657142D01*
X204501904Y-114561904D01*
X204501904Y-114276190D01*
X204549523Y-114180952D01*
X204597142Y-114133333D01*
X204692380Y-114085714D01*
X204835238Y-114085714D01*
X204930476Y-114133333D01*
X204978095Y-114180952D01*
X205025714Y-114276190D01*
X205025714Y-114561904D01*
X204978095Y-114657142D01*
X204930476Y-114704761D01*
X204835238Y-114752380D01*
X204692380Y-114752380D01*
X204882857Y-113704761D02*
X204740000Y-113847619D01*
X205454285Y-114085714D02*
X205454285Y-114752380D01*
X205454285Y-114180952D02*
X205501904Y-114133333D01*
X205597142Y-114085714D01*
X205740000Y-114085714D01*
X205835238Y-114133333D01*
X205882857Y-114228571D01*
X205882857Y-114752380D01*
X207073333Y-114466666D02*
X207549523Y-114466666D01*
X206978095Y-114752380D02*
X207311428Y-113752380D01*
X207644761Y-114752380D01*
X207978095Y-114752380D02*
X207978095Y-114085714D01*
X207978095Y-114276190D02*
X208025714Y-114180952D01*
X208073333Y-114133333D01*
X208168571Y-114085714D01*
X208263809Y-114085714D01*
X209025714Y-114752380D02*
X209025714Y-113752380D01*
X209025714Y-114704761D02*
X208930476Y-114752380D01*
X208740000Y-114752380D01*
X208644761Y-114704761D01*
X208597142Y-114657142D01*
X208549523Y-114561904D01*
X208549523Y-114276190D01*
X208597142Y-114180952D01*
X208644761Y-114133333D01*
X208740000Y-114085714D01*
X208930476Y-114085714D01*
X209025714Y-114133333D01*
X209930476Y-114085714D02*
X209930476Y-114752380D01*
X209501904Y-114085714D02*
X209501904Y-114609523D01*
X209549523Y-114704761D01*
X209644761Y-114752380D01*
X209787619Y-114752380D01*
X209882857Y-114704761D01*
X209930476Y-114657142D01*
X210406666Y-114752380D02*
X210406666Y-114085714D01*
X210406666Y-113752380D02*
X210359047Y-113800000D01*
X210406666Y-113847619D01*
X210454285Y-113800000D01*
X210406666Y-113752380D01*
X210406666Y-113847619D01*
X210882857Y-114085714D02*
X210882857Y-114752380D01*
X210882857Y-114180952D02*
X210930476Y-114133333D01*
X211025714Y-114085714D01*
X211168571Y-114085714D01*
X211263809Y-114133333D01*
X211311428Y-114228571D01*
X211311428Y-114752380D01*
X211930476Y-114752380D02*
X211835238Y-114704761D01*
X211787619Y-114657142D01*
X211740000Y-114561904D01*
X211740000Y-114276190D01*
X211787619Y-114180952D01*
X211835238Y-114133333D01*
X211930476Y-114085714D01*
X212073333Y-114085714D01*
X212168571Y-114133333D01*
X212216190Y-114180952D01*
X212263809Y-114276190D01*
X212263809Y-114561904D01*
X212216190Y-114657142D01*
X212168571Y-114704761D01*
X212073333Y-114752380D01*
X211930476Y-114752380D01*
X213930476Y-113752380D02*
X213454285Y-113752380D01*
X213406666Y-114228571D01*
X213454285Y-114180952D01*
X213549523Y-114133333D01*
X213787619Y-114133333D01*
X213882857Y-114180952D01*
X213930476Y-114228571D01*
X213978095Y-114323809D01*
X213978095Y-114561904D01*
X213930476Y-114657142D01*
X213882857Y-114704761D01*
X213787619Y-114752380D01*
X213549523Y-114752380D01*
X213454285Y-114704761D01*
X213406666Y-114657142D01*
X214311428Y-114085714D02*
X214549523Y-114752380D01*
X214787619Y-114085714D01*
X204172380Y-107529523D02*
X204886666Y-107529523D01*
X205029523Y-107577142D01*
X205124761Y-107672380D01*
X205172380Y-107815238D01*
X205172380Y-107910476D01*
X205172380Y-106529523D02*
X205172380Y-107100952D01*
X205172380Y-106815238D02*
X204172380Y-106815238D01*
X204315238Y-106910476D01*
X204410476Y-107005714D01*
X204458095Y-107100952D01*
X204172380Y-105910476D02*
X204172380Y-105815238D01*
X204220000Y-105720000D01*
X204267619Y-105672380D01*
X204362857Y-105624761D01*
X204553333Y-105577142D01*
X204791428Y-105577142D01*
X204981904Y-105624761D01*
X205077142Y-105672380D01*
X205124761Y-105720000D01*
X205172380Y-105815238D01*
X205172380Y-105910476D01*
X205124761Y-106005714D01*
X205077142Y-106053333D01*
X204981904Y-106100952D01*
X204791428Y-106148571D01*
X204553333Y-106148571D01*
X204362857Y-106100952D01*
X204267619Y-106053333D01*
X204220000Y-106005714D01*
X204172380Y-105910476D01*
M02*
