M48
; DRILL file {KiCad (5.1.0)-1} date 27/04/2019 15:23:24
; FORMAT={-:-/ absolute / inch / decimal}
; #@! TF.CreationDate,2019-04-27T15:23:24-05:00
; #@! TF.GenerationSoftware,Kicad,Pcbnew,(5.1.0)-1
; #@! TF.FileFunction,Plated,1,2,PTH
FMAT,2
INCH
T1C0.0157
T2C0.0315
T3C0.0394
T4C0.0400
T5C0.1200
%
G90
G05
T1
X5.0Y-3.15
X5.1Y-3.15
X5.35Y-4.0
X5.9Y-3.85
T2
X7.1Y-4.4
X7.2969Y-4.4
X6.2Y-4.15
X6.2Y-4.55
X6.45Y-4.15
X6.85Y-4.15
X7.1Y-4.0
X7.2969Y-4.0
T3
X5.9Y-3.85
X5.9Y-3.95
X5.9Y-4.05
X5.35Y-3.9
X5.35Y-4.0
X5.35Y-4.1
X7.05Y-3.15
X7.15Y-3.15
X7.25Y-3.15
X7.35Y-3.15
X5.4Y-3.15
X5.5Y-3.15
X5.6Y-3.15
X5.7Y-3.15
X5.8Y-3.15
X5.9Y-3.15
X6.0Y-3.15
X6.1Y-3.15
X6.2Y-3.15
X6.3Y-3.15
X4.8Y-3.7
X4.9Y-3.7
X5.0Y-3.7
X5.1Y-3.7
X4.8Y-3.15
X4.9Y-3.15
X5.0Y-3.15
X5.1Y-3.15
T4
X5.17Y-4.69
X5.27Y-4.69
X5.37Y-4.69
X5.47Y-4.69
X5.57Y-4.69
X5.67Y-4.69
X5.77Y-4.69
X5.87Y-4.69
X6.07Y-4.69
X6.17Y-4.69
X6.27Y-4.69
X6.37Y-4.69
X6.47Y-4.69
X6.57Y-4.69
X6.67Y-4.69
X6.77Y-4.69
X5.87Y-2.79
X5.97Y-2.79
X6.07Y-2.79
X6.17Y-2.79
X6.27Y-2.79
X6.37Y-2.79
X6.47Y-2.79
X6.57Y-2.79
X7.77Y-2.79
X7.77Y-2.89
X7.77Y-2.99
X7.77Y-3.09
X7.77Y-3.19
X7.77Y-3.29
X7.77Y-3.39
X7.77Y-3.49
X7.77Y-3.59
X7.77Y-3.69
X7.77Y-3.79
X7.77Y-3.89
X7.77Y-3.99
X7.77Y-4.09
X7.77Y-4.19
X7.77Y-4.29
X7.77Y-4.39
X7.77Y-4.49
X7.87Y-2.79
X7.87Y-2.89
X7.87Y-2.99
X7.87Y-3.09
X7.87Y-3.19
X7.87Y-3.29
X7.87Y-3.39
X7.87Y-3.49
X7.87Y-3.59
X7.87Y-3.69
X7.87Y-3.79
X7.87Y-3.89
X7.87Y-3.99
X7.87Y-4.09
X7.87Y-4.19
X7.87Y-4.29
X7.87Y-4.39
X7.87Y-4.49
X6.97Y-4.69
X7.07Y-4.69
X7.17Y-4.69
X7.27Y-4.69
X7.37Y-4.69
X7.47Y-4.69
X7.57Y-4.69
X7.67Y-4.69
X4.81Y-2.79
X4.91Y-2.79
X5.01Y-2.79
X5.11Y-2.79
X5.21Y-2.79
X5.31Y-2.79
X5.41Y-2.79
X5.51Y-2.79
X5.61Y-2.79
X5.71Y-2.79
X6.77Y-2.79
X6.87Y-2.79
X6.97Y-2.79
X7.07Y-2.79
X7.17Y-2.79
X7.27Y-2.79
X7.37Y-2.79
X7.47Y-2.79
T5
X6.67Y-3.39
X7.87Y-4.69
X4.67Y-2.79
X4.62Y-4.69
X6.67Y-4.49
X7.62Y-2.79
T0
M30
