G04 #@! TF.GenerationSoftware,KiCad,Pcbnew,5.0.2+dfsg1-1*
G04 #@! TF.CreationDate,2020-02-13T15:26:16-05:00*
G04 #@! TF.ProjectId,poolV1,706f6f6c-5631-42e6-9b69-6361645f7063,rev?*
G04 #@! TF.SameCoordinates,Original*
G04 #@! TF.FileFunction,Other,Fab,Top*
%FSLAX46Y46*%
G04 Gerber Fmt 4.6, Leading zero omitted, Abs format (unit mm)*
G04 Created by KiCad (PCBNEW 5.0.2+dfsg1-1) date Thu 13 Feb 2020 03:26:16 PM -05*
%MOMM*%
%LPD*%
G01*
G04 APERTURE LIST*
%ADD10C,0.100000*%
%ADD11C,0.150000*%
G04 APERTURE END LIST*
D10*
G04 #@! TO.C,J4*
X181610000Y-95250000D02*
X183515000Y-95250000D01*
X183515000Y-95250000D02*
X184150000Y-95885000D01*
X184150000Y-95885000D02*
X184150000Y-97790000D01*
X184150000Y-97790000D02*
X181610000Y-97790000D01*
X181610000Y-97790000D02*
X181610000Y-95250000D01*
G04 #@! TO.C,J2*
X130175000Y-95250000D02*
X132080000Y-95250000D01*
X132080000Y-95250000D02*
X132080000Y-105410000D01*
X132080000Y-105410000D02*
X129540000Y-105410000D01*
X129540000Y-105410000D02*
X129540000Y-95885000D01*
X129540000Y-95885000D02*
X130175000Y-95250000D01*
G04 #@! TO.C,J1*
X178435000Y-78740000D02*
X179070000Y-79375000D01*
X168910000Y-78740000D02*
X178435000Y-78740000D01*
X168910000Y-81280000D02*
X168910000Y-78740000D01*
X179070000Y-81280000D02*
X168910000Y-81280000D01*
X179070000Y-79375000D02*
X179070000Y-81280000D01*
G04 #@! TO.C,J5*
X161290000Y-79375000D02*
X161290000Y-81280000D01*
X161290000Y-81280000D02*
X135890000Y-81280000D01*
X135890000Y-81280000D02*
X135890000Y-78740000D01*
X135890000Y-78740000D02*
X160655000Y-78740000D01*
X160655000Y-78740000D02*
X161290000Y-79375000D01*
G04 #@! TO.C,J3*
X172085000Y-102870000D02*
X170180000Y-102870000D01*
X170180000Y-102870000D02*
X170180000Y-92710000D01*
X170180000Y-92710000D02*
X172720000Y-92710000D01*
X172720000Y-92710000D02*
X172720000Y-102235000D01*
X172720000Y-102235000D02*
X172085000Y-102870000D01*
G04 #@! TD*
G04 #@! TO.C,J4*
D11*
X180260952Y-98742380D02*
X179784761Y-98742380D01*
X179737142Y-99218571D01*
X179784761Y-99170952D01*
X179880000Y-99123333D01*
X180118095Y-99123333D01*
X180213333Y-99170952D01*
X180260952Y-99218571D01*
X180308571Y-99313809D01*
X180308571Y-99551904D01*
X180260952Y-99647142D01*
X180213333Y-99694761D01*
X180118095Y-99742380D01*
X179880000Y-99742380D01*
X179784761Y-99694761D01*
X179737142Y-99647142D01*
X181403809Y-99075714D02*
X181641904Y-99742380D01*
X181880000Y-99075714D01*
X182403809Y-99742380D02*
X182308571Y-99694761D01*
X182260952Y-99647142D01*
X182213333Y-99551904D01*
X182213333Y-99266190D01*
X182260952Y-99170952D01*
X182308571Y-99123333D01*
X182403809Y-99075714D01*
X182546666Y-99075714D01*
X182641904Y-99123333D01*
X182689523Y-99170952D01*
X182737142Y-99266190D01*
X182737142Y-99551904D01*
X182689523Y-99647142D01*
X182641904Y-99694761D01*
X182546666Y-99742380D01*
X182403809Y-99742380D01*
X183308571Y-99742380D02*
X183213333Y-99694761D01*
X183165714Y-99599523D01*
X183165714Y-98742380D01*
X183546666Y-99075714D02*
X183927619Y-99075714D01*
X183689523Y-98742380D02*
X183689523Y-99599523D01*
X183737142Y-99694761D01*
X183832380Y-99742380D01*
X183927619Y-99742380D01*
X184260952Y-99742380D02*
X184260952Y-99075714D01*
X184260952Y-98742380D02*
X184213333Y-98790000D01*
X184260952Y-98837619D01*
X184308571Y-98790000D01*
X184260952Y-98742380D01*
X184260952Y-98837619D01*
X184880000Y-99742380D02*
X184784761Y-99694761D01*
X184737142Y-99647142D01*
X184689523Y-99551904D01*
X184689523Y-99266190D01*
X184737142Y-99170952D01*
X184784761Y-99123333D01*
X184880000Y-99075714D01*
X185022857Y-99075714D01*
X185118095Y-99123333D01*
X185165714Y-99170952D01*
X185213333Y-99266190D01*
X185213333Y-99551904D01*
X185165714Y-99647142D01*
X185118095Y-99694761D01*
X185022857Y-99742380D01*
X184880000Y-99742380D01*
X185594285Y-99694761D02*
X185689523Y-99742380D01*
X185880000Y-99742380D01*
X185975238Y-99694761D01*
X186022857Y-99599523D01*
X186022857Y-99551904D01*
X185975238Y-99456666D01*
X185880000Y-99409047D01*
X185737142Y-99409047D01*
X185641904Y-99361428D01*
X185594285Y-99266190D01*
X185594285Y-99218571D01*
X185641904Y-99123333D01*
X185737142Y-99075714D01*
X185880000Y-99075714D01*
X185975238Y-99123333D01*
X182546666Y-95972380D02*
X182546666Y-96686666D01*
X182499047Y-96829523D01*
X182403809Y-96924761D01*
X182260952Y-96972380D01*
X182165714Y-96972380D01*
X183451428Y-96305714D02*
X183451428Y-96972380D01*
X183213333Y-95924761D02*
X182975238Y-96639047D01*
X183594285Y-96639047D01*
G04 #@! TO.C,J2*
X127762380Y-109672380D02*
X127762380Y-108672380D01*
X128095714Y-109386666D01*
X128429047Y-108672380D01*
X128429047Y-109672380D01*
X128905238Y-109148571D02*
X129238571Y-109148571D01*
X129381428Y-109672380D02*
X128905238Y-109672380D01*
X128905238Y-108672380D01*
X129381428Y-108672380D01*
X129810000Y-109672380D02*
X129810000Y-108672380D01*
X130143333Y-109386666D01*
X130476666Y-108672380D01*
X130476666Y-109672380D01*
X131143333Y-108672380D02*
X131333809Y-108672380D01*
X131429047Y-108720000D01*
X131524285Y-108815238D01*
X131571904Y-109005714D01*
X131571904Y-109339047D01*
X131524285Y-109529523D01*
X131429047Y-109624761D01*
X131333809Y-109672380D01*
X131143333Y-109672380D01*
X131048095Y-109624761D01*
X130952857Y-109529523D01*
X130905238Y-109339047D01*
X130905238Y-109005714D01*
X130952857Y-108815238D01*
X131048095Y-108720000D01*
X131143333Y-108672380D01*
X132571904Y-109672380D02*
X132238571Y-109196190D01*
X132000476Y-109672380D02*
X132000476Y-108672380D01*
X132381428Y-108672380D01*
X132476666Y-108720000D01*
X132524285Y-108767619D01*
X132571904Y-108862857D01*
X132571904Y-109005714D01*
X132524285Y-109100952D01*
X132476666Y-109148571D01*
X132381428Y-109196190D01*
X132000476Y-109196190D01*
X133000476Y-109672380D02*
X133000476Y-108672380D01*
X133429047Y-109386666D02*
X133905238Y-109386666D01*
X133333809Y-109672380D02*
X133667142Y-108672380D01*
X134000476Y-109672380D01*
X131357619Y-99996666D02*
X130643333Y-99996666D01*
X130500476Y-99949047D01*
X130405238Y-99853809D01*
X130357619Y-99710952D01*
X130357619Y-99615714D01*
X131262380Y-100425238D02*
X131310000Y-100472857D01*
X131357619Y-100568095D01*
X131357619Y-100806190D01*
X131310000Y-100901428D01*
X131262380Y-100949047D01*
X131167142Y-100996666D01*
X131071904Y-100996666D01*
X130929047Y-100949047D01*
X130357619Y-100377619D01*
X130357619Y-100996666D01*
G04 #@! TO.C,J1*
X180919523Y-84272380D02*
X180443333Y-84272380D01*
X180443333Y-83272380D01*
X181824285Y-84177142D02*
X181776666Y-84224761D01*
X181633809Y-84272380D01*
X181538571Y-84272380D01*
X181395714Y-84224761D01*
X181300476Y-84129523D01*
X181252857Y-84034285D01*
X181205238Y-83843809D01*
X181205238Y-83700952D01*
X181252857Y-83510476D01*
X181300476Y-83415238D01*
X181395714Y-83320000D01*
X181538571Y-83272380D01*
X181633809Y-83272380D01*
X181776666Y-83320000D01*
X181824285Y-83367619D01*
X182252857Y-84272380D02*
X182252857Y-83272380D01*
X182490952Y-83272380D01*
X182633809Y-83320000D01*
X182729047Y-83415238D01*
X182776666Y-83510476D01*
X182824285Y-83700952D01*
X182824285Y-83843809D01*
X182776666Y-84034285D01*
X182729047Y-84129523D01*
X182633809Y-84224761D01*
X182490952Y-84272380D01*
X182252857Y-84272380D01*
X173656666Y-79462380D02*
X173656666Y-80176666D01*
X173609047Y-80319523D01*
X173513809Y-80414761D01*
X173370952Y-80462380D01*
X173275714Y-80462380D01*
X174656666Y-80462380D02*
X174085238Y-80462380D01*
X174370952Y-80462380D02*
X174370952Y-79462380D01*
X174275714Y-79605238D01*
X174180476Y-79700476D01*
X174085238Y-79748095D01*
G04 #@! TO.C,J5*
X135282380Y-81486190D02*
X134806190Y-81819523D01*
X135282380Y-82057619D02*
X134282380Y-82057619D01*
X134282380Y-81676666D01*
X134330000Y-81581428D01*
X134377619Y-81533809D01*
X134472857Y-81486190D01*
X134615714Y-81486190D01*
X134710952Y-81533809D01*
X134758571Y-81581428D01*
X134806190Y-81676666D01*
X134806190Y-82057619D01*
X134758571Y-81057619D02*
X134758571Y-80724285D01*
X135282380Y-80581428D02*
X135282380Y-81057619D01*
X134282380Y-81057619D01*
X134282380Y-80581428D01*
X135282380Y-79676666D02*
X135282380Y-80152857D01*
X134282380Y-80152857D01*
X134758571Y-79343333D02*
X134758571Y-79010000D01*
X135282380Y-78867142D02*
X135282380Y-79343333D01*
X134282380Y-79343333D01*
X134282380Y-78867142D01*
X135234761Y-78486190D02*
X135282380Y-78343333D01*
X135282380Y-78105238D01*
X135234761Y-78010000D01*
X135187142Y-77962380D01*
X135091904Y-77914761D01*
X134996666Y-77914761D01*
X134901428Y-77962380D01*
X134853809Y-78010000D01*
X134806190Y-78105238D01*
X134758571Y-78295714D01*
X134710952Y-78390952D01*
X134663333Y-78438571D01*
X134568095Y-78486190D01*
X134472857Y-78486190D01*
X134377619Y-78438571D01*
X134330000Y-78390952D01*
X134282380Y-78295714D01*
X134282380Y-78057619D01*
X134330000Y-77914761D01*
X148256666Y-79462380D02*
X148256666Y-80176666D01*
X148209047Y-80319523D01*
X148113809Y-80414761D01*
X147970952Y-80462380D01*
X147875714Y-80462380D01*
X149209047Y-79462380D02*
X148732857Y-79462380D01*
X148685238Y-79938571D01*
X148732857Y-79890952D01*
X148828095Y-79843333D01*
X149066190Y-79843333D01*
X149161428Y-79890952D01*
X149209047Y-79938571D01*
X149256666Y-80033809D01*
X149256666Y-80271904D01*
X149209047Y-80367142D01*
X149161428Y-80414761D01*
X149066190Y-80462380D01*
X148828095Y-80462380D01*
X148732857Y-80414761D01*
X148685238Y-80367142D01*
G04 #@! TO.C,J3*
X174688571Y-104592380D02*
X174355238Y-104116190D01*
X174117142Y-104592380D02*
X174117142Y-103592380D01*
X174498095Y-103592380D01*
X174593333Y-103640000D01*
X174640952Y-103687619D01*
X174688571Y-103782857D01*
X174688571Y-103925714D01*
X174640952Y-104020952D01*
X174593333Y-104068571D01*
X174498095Y-104116190D01*
X174117142Y-104116190D01*
X174974285Y-103592380D02*
X175545714Y-103592380D01*
X175260000Y-104592380D02*
X175260000Y-103592380D01*
X176450476Y-104497142D02*
X176402857Y-104544761D01*
X176260000Y-104592380D01*
X176164761Y-104592380D01*
X176021904Y-104544761D01*
X175926666Y-104449523D01*
X175879047Y-104354285D01*
X175831428Y-104163809D01*
X175831428Y-104020952D01*
X175879047Y-103830476D01*
X175926666Y-103735238D01*
X176021904Y-103640000D01*
X176164761Y-103592380D01*
X176260000Y-103592380D01*
X176402857Y-103640000D01*
X176450476Y-103687619D01*
X171116666Y-97242380D02*
X171116666Y-97956666D01*
X171069047Y-98099523D01*
X170973809Y-98194761D01*
X170830952Y-98242380D01*
X170735714Y-98242380D01*
X171497619Y-97242380D02*
X172116666Y-97242380D01*
X171783333Y-97623333D01*
X171926190Y-97623333D01*
X172021428Y-97670952D01*
X172069047Y-97718571D01*
X172116666Y-97813809D01*
X172116666Y-98051904D01*
X172069047Y-98147142D01*
X172021428Y-98194761D01*
X171926190Y-98242380D01*
X171640476Y-98242380D01*
X171545238Y-98194761D01*
X171497619Y-98147142D01*
G04 #@! TO.C,P1*
X193238380Y-94646476D02*
X192238380Y-94646476D01*
X192238380Y-94408380D01*
X192286000Y-94265523D01*
X192381238Y-94170285D01*
X192476476Y-94122666D01*
X192666952Y-94075047D01*
X192809809Y-94075047D01*
X193000285Y-94122666D01*
X193095523Y-94170285D01*
X193190761Y-94265523D01*
X193238380Y-94408380D01*
X193238380Y-94646476D01*
X193238380Y-93646476D02*
X192571714Y-93646476D01*
X192238380Y-93646476D02*
X192286000Y-93694095D01*
X192333619Y-93646476D01*
X192286000Y-93598857D01*
X192238380Y-93646476D01*
X192333619Y-93646476D01*
X192571714Y-92741714D02*
X193381238Y-92741714D01*
X193476476Y-92789333D01*
X193524095Y-92836952D01*
X193571714Y-92932190D01*
X193571714Y-93075047D01*
X193524095Y-93170285D01*
X193190761Y-92741714D02*
X193238380Y-92836952D01*
X193238380Y-93027428D01*
X193190761Y-93122666D01*
X193143142Y-93170285D01*
X193047904Y-93217904D01*
X192762190Y-93217904D01*
X192666952Y-93170285D01*
X192619333Y-93122666D01*
X192571714Y-93027428D01*
X192571714Y-92836952D01*
X192619333Y-92741714D01*
X193238380Y-92265523D02*
X192571714Y-92265523D01*
X192238380Y-92265523D02*
X192286000Y-92313142D01*
X192333619Y-92265523D01*
X192286000Y-92217904D01*
X192238380Y-92265523D01*
X192333619Y-92265523D01*
X192571714Y-91932190D02*
X192571714Y-91551238D01*
X192238380Y-91789333D02*
X193095523Y-91789333D01*
X193190761Y-91741714D01*
X193238380Y-91646476D01*
X193238380Y-91551238D01*
X193238380Y-90789333D02*
X192714571Y-90789333D01*
X192619333Y-90836952D01*
X192571714Y-90932190D01*
X192571714Y-91122666D01*
X192619333Y-91217904D01*
X193190761Y-90789333D02*
X193238380Y-90884571D01*
X193238380Y-91122666D01*
X193190761Y-91217904D01*
X193095523Y-91265523D01*
X193000285Y-91265523D01*
X192905047Y-91217904D01*
X192857428Y-91122666D01*
X192857428Y-90884571D01*
X192809809Y-90789333D01*
X193238380Y-90170285D02*
X193190761Y-90265523D01*
X193095523Y-90313142D01*
X192238380Y-90313142D01*
G04 #@! TO.C,P2*
X138231809Y-115260380D02*
X138231809Y-114260380D01*
X138612761Y-114260380D01*
X138708000Y-114308000D01*
X138755619Y-114355619D01*
X138803238Y-114450857D01*
X138803238Y-114593714D01*
X138755619Y-114688952D01*
X138708000Y-114736571D01*
X138612761Y-114784190D01*
X138231809Y-114784190D01*
X139374666Y-115260380D02*
X139279428Y-115212761D01*
X139231809Y-115165142D01*
X139184190Y-115069904D01*
X139184190Y-114784190D01*
X139231809Y-114688952D01*
X139279428Y-114641333D01*
X139374666Y-114593714D01*
X139517523Y-114593714D01*
X139612761Y-114641333D01*
X139660380Y-114688952D01*
X139708000Y-114784190D01*
X139708000Y-115069904D01*
X139660380Y-115165142D01*
X139612761Y-115212761D01*
X139517523Y-115260380D01*
X139374666Y-115260380D01*
X140041333Y-114593714D02*
X140231809Y-115260380D01*
X140422285Y-114784190D01*
X140612761Y-115260380D01*
X140803238Y-114593714D01*
X141565142Y-115212761D02*
X141469904Y-115260380D01*
X141279428Y-115260380D01*
X141184190Y-115212761D01*
X141136571Y-115117523D01*
X141136571Y-114736571D01*
X141184190Y-114641333D01*
X141279428Y-114593714D01*
X141469904Y-114593714D01*
X141565142Y-114641333D01*
X141612761Y-114736571D01*
X141612761Y-114831809D01*
X141136571Y-114927047D01*
X142041333Y-115260380D02*
X142041333Y-114593714D01*
X142041333Y-114784190D02*
X142088952Y-114688952D01*
X142136571Y-114641333D01*
X142231809Y-114593714D01*
X142327047Y-114593714D01*
G04 #@! TO.C,P3*
X160758476Y-114974666D02*
X161234666Y-114974666D01*
X160663238Y-115260380D02*
X160996571Y-114260380D01*
X161329904Y-115260380D01*
X161663238Y-114593714D02*
X161663238Y-115260380D01*
X161663238Y-114688952D02*
X161710857Y-114641333D01*
X161806095Y-114593714D01*
X161948952Y-114593714D01*
X162044190Y-114641333D01*
X162091809Y-114736571D01*
X162091809Y-115260380D01*
X162996571Y-115260380D02*
X162996571Y-114736571D01*
X162948952Y-114641333D01*
X162853714Y-114593714D01*
X162663238Y-114593714D01*
X162568000Y-114641333D01*
X162996571Y-115212761D02*
X162901333Y-115260380D01*
X162663238Y-115260380D01*
X162568000Y-115212761D01*
X162520380Y-115117523D01*
X162520380Y-115022285D01*
X162568000Y-114927047D01*
X162663238Y-114879428D01*
X162901333Y-114879428D01*
X162996571Y-114831809D01*
X163615619Y-115260380D02*
X163520380Y-115212761D01*
X163472761Y-115117523D01*
X163472761Y-114260380D01*
X164139428Y-115260380D02*
X164044190Y-115212761D01*
X163996571Y-115165142D01*
X163948952Y-115069904D01*
X163948952Y-114784190D01*
X163996571Y-114688952D01*
X164044190Y-114641333D01*
X164139428Y-114593714D01*
X164282285Y-114593714D01*
X164377523Y-114641333D01*
X164425142Y-114688952D01*
X164472761Y-114784190D01*
X164472761Y-115069904D01*
X164425142Y-115165142D01*
X164377523Y-115212761D01*
X164282285Y-115260380D01*
X164139428Y-115260380D01*
X165329904Y-114593714D02*
X165329904Y-115403238D01*
X165282285Y-115498476D01*
X165234666Y-115546095D01*
X165139428Y-115593714D01*
X164996571Y-115593714D01*
X164901333Y-115546095D01*
X165329904Y-115212761D02*
X165234666Y-115260380D01*
X165044190Y-115260380D01*
X164948952Y-115212761D01*
X164901333Y-115165142D01*
X164853714Y-115069904D01*
X164853714Y-114784190D01*
X164901333Y-114688952D01*
X164948952Y-114641333D01*
X165044190Y-114593714D01*
X165234666Y-114593714D01*
X165329904Y-114641333D01*
G04 #@! TO.C,P4*
X183618476Y-114974666D02*
X184094666Y-114974666D01*
X183523238Y-115260380D02*
X183856571Y-114260380D01*
X184189904Y-115260380D01*
X184523238Y-114593714D02*
X184523238Y-115260380D01*
X184523238Y-114688952D02*
X184570857Y-114641333D01*
X184666095Y-114593714D01*
X184808952Y-114593714D01*
X184904190Y-114641333D01*
X184951809Y-114736571D01*
X184951809Y-115260380D01*
X185856571Y-115260380D02*
X185856571Y-114736571D01*
X185808952Y-114641333D01*
X185713714Y-114593714D01*
X185523238Y-114593714D01*
X185428000Y-114641333D01*
X185856571Y-115212761D02*
X185761333Y-115260380D01*
X185523238Y-115260380D01*
X185428000Y-115212761D01*
X185380380Y-115117523D01*
X185380380Y-115022285D01*
X185428000Y-114927047D01*
X185523238Y-114879428D01*
X185761333Y-114879428D01*
X185856571Y-114831809D01*
X186475619Y-115260380D02*
X186380380Y-115212761D01*
X186332761Y-115117523D01*
X186332761Y-114260380D01*
X186999428Y-115260380D02*
X186904190Y-115212761D01*
X186856571Y-115165142D01*
X186808952Y-115069904D01*
X186808952Y-114784190D01*
X186856571Y-114688952D01*
X186904190Y-114641333D01*
X186999428Y-114593714D01*
X187142285Y-114593714D01*
X187237523Y-114641333D01*
X187285142Y-114688952D01*
X187332761Y-114784190D01*
X187332761Y-115069904D01*
X187285142Y-115165142D01*
X187237523Y-115212761D01*
X187142285Y-115260380D01*
X186999428Y-115260380D01*
X188189904Y-114593714D02*
X188189904Y-115403238D01*
X188142285Y-115498476D01*
X188094666Y-115546095D01*
X187999428Y-115593714D01*
X187856571Y-115593714D01*
X187761333Y-115546095D01*
X188189904Y-115212761D02*
X188094666Y-115260380D01*
X187904190Y-115260380D01*
X187808952Y-115212761D01*
X187761333Y-115165142D01*
X187713714Y-115069904D01*
X187713714Y-114784190D01*
X187761333Y-114688952D01*
X187808952Y-114641333D01*
X187904190Y-114593714D01*
X188094666Y-114593714D01*
X188189904Y-114641333D01*
G04 #@! TO.C,P5*
X132199238Y-75636380D02*
X132199238Y-74636380D01*
X132580190Y-74636380D01*
X132675428Y-74684000D01*
X132723047Y-74731619D01*
X132770666Y-74826857D01*
X132770666Y-74969714D01*
X132723047Y-75064952D01*
X132675428Y-75112571D01*
X132580190Y-75160190D01*
X132199238Y-75160190D01*
X133104000Y-74636380D02*
X133342095Y-75636380D01*
X133532571Y-74922095D01*
X133723047Y-75636380D01*
X133961142Y-74636380D01*
X134342095Y-75636380D02*
X134342095Y-74636380D01*
X134675428Y-75350666D01*
X135008761Y-74636380D01*
X135008761Y-75636380D01*
G04 #@! TO.C,P6*
X156583238Y-75636380D02*
X156583238Y-74636380D01*
X156964190Y-74636380D01*
X157059428Y-74684000D01*
X157107047Y-74731619D01*
X157154666Y-74826857D01*
X157154666Y-74969714D01*
X157107047Y-75064952D01*
X157059428Y-75112571D01*
X156964190Y-75160190D01*
X156583238Y-75160190D01*
X157488000Y-74636380D02*
X157726095Y-75636380D01*
X157916571Y-74922095D01*
X158107047Y-75636380D01*
X158345142Y-74636380D01*
X158726095Y-75636380D02*
X158726095Y-74636380D01*
X159059428Y-75350666D01*
X159392761Y-74636380D01*
X159392761Y-75636380D01*
G04 #@! TO.C,P7*
X175919428Y-75287142D02*
X175871809Y-75334761D01*
X175728952Y-75382380D01*
X175633714Y-75382380D01*
X175490857Y-75334761D01*
X175395619Y-75239523D01*
X175348000Y-75144285D01*
X175300380Y-74953809D01*
X175300380Y-74810952D01*
X175348000Y-74620476D01*
X175395619Y-74525238D01*
X175490857Y-74430000D01*
X175633714Y-74382380D01*
X175728952Y-74382380D01*
X175871809Y-74430000D01*
X175919428Y-74477619D01*
X176490857Y-75382380D02*
X176395619Y-75334761D01*
X176348000Y-75287142D01*
X176300380Y-75191904D01*
X176300380Y-74906190D01*
X176348000Y-74810952D01*
X176395619Y-74763333D01*
X176490857Y-74715714D01*
X176633714Y-74715714D01*
X176728952Y-74763333D01*
X176776571Y-74810952D01*
X176824190Y-74906190D01*
X176824190Y-75191904D01*
X176776571Y-75287142D01*
X176728952Y-75334761D01*
X176633714Y-75382380D01*
X176490857Y-75382380D01*
X177252761Y-75382380D02*
X177252761Y-74715714D01*
X177252761Y-74810952D02*
X177300380Y-74763333D01*
X177395619Y-74715714D01*
X177538476Y-74715714D01*
X177633714Y-74763333D01*
X177681333Y-74858571D01*
X177681333Y-75382380D01*
X177681333Y-74858571D02*
X177728952Y-74763333D01*
X177824190Y-74715714D01*
X177967047Y-74715714D01*
X178062285Y-74763333D01*
X178109904Y-74858571D01*
X178109904Y-75382380D01*
X178586095Y-75382380D02*
X178586095Y-74715714D01*
X178586095Y-74810952D02*
X178633714Y-74763333D01*
X178728952Y-74715714D01*
X178871809Y-74715714D01*
X178967047Y-74763333D01*
X179014666Y-74858571D01*
X179014666Y-75382380D01*
X179014666Y-74858571D02*
X179062285Y-74763333D01*
X179157523Y-74715714D01*
X179300380Y-74715714D01*
X179395619Y-74763333D01*
X179443238Y-74858571D01*
X179443238Y-75382380D01*
X180348000Y-74715714D02*
X180348000Y-75382380D01*
X179919428Y-74715714D02*
X179919428Y-75239523D01*
X179967047Y-75334761D01*
X180062285Y-75382380D01*
X180205142Y-75382380D01*
X180300380Y-75334761D01*
X180348000Y-75287142D01*
X180824190Y-74715714D02*
X180824190Y-75382380D01*
X180824190Y-74810952D02*
X180871809Y-74763333D01*
X180967047Y-74715714D01*
X181109904Y-74715714D01*
X181205142Y-74763333D01*
X181252761Y-74858571D01*
X181252761Y-75382380D01*
X181728952Y-75382380D02*
X181728952Y-74715714D01*
X181728952Y-74382380D02*
X181681333Y-74430000D01*
X181728952Y-74477619D01*
X181776571Y-74430000D01*
X181728952Y-74382380D01*
X181728952Y-74477619D01*
X182633714Y-75334761D02*
X182538476Y-75382380D01*
X182348000Y-75382380D01*
X182252761Y-75334761D01*
X182205142Y-75287142D01*
X182157523Y-75191904D01*
X182157523Y-74906190D01*
X182205142Y-74810952D01*
X182252761Y-74763333D01*
X182348000Y-74715714D01*
X182538476Y-74715714D01*
X182633714Y-74763333D01*
X183490857Y-75382380D02*
X183490857Y-74858571D01*
X183443238Y-74763333D01*
X183348000Y-74715714D01*
X183157523Y-74715714D01*
X183062285Y-74763333D01*
X183490857Y-75334761D02*
X183395619Y-75382380D01*
X183157523Y-75382380D01*
X183062285Y-75334761D01*
X183014666Y-75239523D01*
X183014666Y-75144285D01*
X183062285Y-75049047D01*
X183157523Y-75001428D01*
X183395619Y-75001428D01*
X183490857Y-74953809D01*
X183824190Y-74715714D02*
X184205142Y-74715714D01*
X183967047Y-74382380D02*
X183967047Y-75239523D01*
X184014666Y-75334761D01*
X184109904Y-75382380D01*
X184205142Y-75382380D01*
X184538476Y-75382380D02*
X184538476Y-74715714D01*
X184538476Y-74382380D02*
X184490857Y-74430000D01*
X184538476Y-74477619D01*
X184586095Y-74430000D01*
X184538476Y-74382380D01*
X184538476Y-74477619D01*
X185157523Y-75382380D02*
X185062285Y-75334761D01*
X185014666Y-75287142D01*
X184967047Y-75191904D01*
X184967047Y-74906190D01*
X185014666Y-74810952D01*
X185062285Y-74763333D01*
X185157523Y-74715714D01*
X185300380Y-74715714D01*
X185395619Y-74763333D01*
X185443238Y-74810952D01*
X185490857Y-74906190D01*
X185490857Y-75191904D01*
X185443238Y-75287142D01*
X185395619Y-75334761D01*
X185300380Y-75382380D01*
X185157523Y-75382380D01*
X185919428Y-74715714D02*
X185919428Y-75382380D01*
X185919428Y-74810952D02*
X185967047Y-74763333D01*
X186062285Y-74715714D01*
X186205142Y-74715714D01*
X186300380Y-74763333D01*
X186348000Y-74858571D01*
X186348000Y-75382380D01*
G04 #@! TD*
M02*
