G04 #@! TF.GenerationSoftware,KiCad,Pcbnew,5.0.2+dfsg1-1*
G04 #@! TF.CreationDate,2020-02-13T15:26:16-05:00*
G04 #@! TF.ProjectId,poolV1,706f6f6c-5631-42e6-9b69-6361645f7063,rev?*
G04 #@! TF.SameCoordinates,Original*
G04 #@! TF.FileFunction,Legend,Top*
G04 #@! TF.FilePolarity,Positive*
%FSLAX46Y46*%
G04 Gerber Fmt 4.6, Leading zero omitted, Abs format (unit mm)*
G04 Created by KiCad (PCBNEW 5.0.2+dfsg1-1) date Thu 13 Feb 2020 03:26:16 PM -05*
%MOMM*%
%LPD*%
G01*
G04 APERTURE LIST*
%ADD10C,0.150000*%
%ADD11C,0.120000*%
G04 APERTURE END LIST*
D10*
X131770380Y-116300285D02*
X131770380Y-116871714D01*
X131770380Y-116586000D02*
X130770380Y-116586000D01*
X130913238Y-116681238D01*
X131008476Y-116776476D01*
X131056095Y-116871714D01*
D11*
G04 #@! TO.C,J4*
X181550000Y-97850000D02*
X184210000Y-97850000D01*
X181550000Y-97730000D02*
X181550000Y-97850000D01*
X184210000Y-97730000D02*
X184210000Y-97850000D01*
X184210000Y-95190000D02*
X184210000Y-96520000D01*
X182880000Y-95190000D02*
X184210000Y-95190000D01*
G04 #@! TO.C,J2*
X129480000Y-105470000D02*
X132140000Y-105470000D01*
X129480000Y-97790000D02*
X129480000Y-105470000D01*
X132140000Y-97790000D02*
X132140000Y-105470000D01*
X129480000Y-97790000D02*
X132140000Y-97790000D01*
X129480000Y-96520000D02*
X129480000Y-95190000D01*
X129480000Y-95190000D02*
X130810000Y-95190000D01*
G04 #@! TO.C,J1*
X179130000Y-78680000D02*
X179130000Y-80010000D01*
X177800000Y-78680000D02*
X179130000Y-78680000D01*
X176530000Y-78680000D02*
X176530000Y-81340000D01*
X176530000Y-81340000D02*
X168850000Y-81340000D01*
X176530000Y-78680000D02*
X168850000Y-78680000D01*
X168850000Y-78680000D02*
X168850000Y-81340000D01*
G04 #@! TO.C,J5*
X135830000Y-78680000D02*
X135830000Y-81340000D01*
X158750000Y-78680000D02*
X135830000Y-78680000D01*
X158750000Y-81340000D02*
X135830000Y-81340000D01*
X158750000Y-78680000D02*
X158750000Y-81340000D01*
X160020000Y-78680000D02*
X161350000Y-78680000D01*
X161350000Y-78680000D02*
X161350000Y-80010000D01*
G04 #@! TO.C,J3*
X172780000Y-92650000D02*
X170120000Y-92650000D01*
X172780000Y-100330000D02*
X172780000Y-92650000D01*
X170120000Y-100330000D02*
X170120000Y-92650000D01*
X172780000Y-100330000D02*
X170120000Y-100330000D01*
X172780000Y-101600000D02*
X172780000Y-102930000D01*
X172780000Y-102930000D02*
X171450000Y-102930000D01*
D10*
G04 #@! TO.C,P1*
X201168000Y-115316000D02*
X201168000Y-69596000D01*
X196088000Y-69596000D02*
X196088000Y-112776000D01*
X201168000Y-69596000D02*
X196088000Y-69596000D01*
X201168000Y-115316000D02*
X198628000Y-115316000D01*
X195808000Y-114046000D02*
X195808000Y-115596000D01*
X198628000Y-115316000D02*
X198628000Y-112776000D01*
X198628000Y-112776000D02*
X196088000Y-112776000D01*
X195808000Y-115596000D02*
X197358000Y-115596000D01*
G04 #@! TO.C,P2*
X132588000Y-120396000D02*
X150368000Y-120396000D01*
X150368000Y-120396000D02*
X150368000Y-117856000D01*
X150368000Y-117856000D02*
X132588000Y-117856000D01*
X129768000Y-120676000D02*
X131318000Y-120676000D01*
X132588000Y-120396000D02*
X132588000Y-117856000D01*
X131318000Y-117576000D02*
X129768000Y-117576000D01*
X129768000Y-117576000D02*
X129768000Y-120676000D01*
G04 #@! TO.C,P3*
X155448000Y-120396000D02*
X173228000Y-120396000D01*
X173228000Y-120396000D02*
X173228000Y-117856000D01*
X173228000Y-117856000D02*
X155448000Y-117856000D01*
X152628000Y-120676000D02*
X154178000Y-120676000D01*
X155448000Y-120396000D02*
X155448000Y-117856000D01*
X154178000Y-117576000D02*
X152628000Y-117576000D01*
X152628000Y-117576000D02*
X152628000Y-120676000D01*
G04 #@! TO.C,P4*
X178308000Y-120396000D02*
X196088000Y-120396000D01*
X196088000Y-120396000D02*
X196088000Y-117856000D01*
X196088000Y-117856000D02*
X178308000Y-117856000D01*
X175488000Y-120676000D02*
X177038000Y-120676000D01*
X178308000Y-120396000D02*
X178308000Y-117856000D01*
X177038000Y-117576000D02*
X175488000Y-117576000D01*
X175488000Y-117576000D02*
X175488000Y-120676000D01*
G04 #@! TO.C,P5*
X123444000Y-72136000D02*
X146304000Y-72136000D01*
X146304000Y-72136000D02*
X146304000Y-69596000D01*
X146304000Y-69596000D02*
X123444000Y-69596000D01*
X120624000Y-72416000D02*
X122174000Y-72416000D01*
X123444000Y-72136000D02*
X123444000Y-69596000D01*
X122174000Y-69316000D02*
X120624000Y-69316000D01*
X120624000Y-69316000D02*
X120624000Y-72416000D01*
G04 #@! TO.C,P6*
X150368000Y-72136000D02*
X168148000Y-72136000D01*
X168148000Y-72136000D02*
X168148000Y-69596000D01*
X168148000Y-69596000D02*
X150368000Y-69596000D01*
X147548000Y-72416000D02*
X149098000Y-72416000D01*
X150368000Y-72136000D02*
X150368000Y-69596000D01*
X149098000Y-69316000D02*
X147548000Y-69316000D01*
X147548000Y-69316000D02*
X147548000Y-72416000D01*
G04 #@! TO.C,P7*
X173228000Y-72136000D02*
X191008000Y-72136000D01*
X191008000Y-72136000D02*
X191008000Y-69596000D01*
X191008000Y-69596000D02*
X173228000Y-69596000D01*
X170408000Y-72416000D02*
X171958000Y-72416000D01*
X173228000Y-72136000D02*
X173228000Y-69596000D01*
X171958000Y-69316000D02*
X170408000Y-69316000D01*
X170408000Y-69316000D02*
X170408000Y-72416000D01*
G04 #@! TO.C,P8*
X119634000Y-119126000D02*
G75*
G03X119634000Y-119126000I-2286000J0D01*
G01*
G04 #@! TO.C,P9*
X171704000Y-114046000D02*
G75*
G03X171704000Y-114046000I-2286000J0D01*
G01*
G04 #@! TO.C,P10*
X202184000Y-119126000D02*
G75*
G03X202184000Y-119126000I-2286000J0D01*
G01*
G04 #@! TO.C,P11*
X120904000Y-70866000D02*
G75*
G03X120904000Y-70866000I-2286000J0D01*
G01*
G04 #@! TO.C,P12*
X171704000Y-86106000D02*
G75*
G03X171704000Y-86106000I-2286000J0D01*
G01*
G04 #@! TO.C,P13*
X195834000Y-70866000D02*
G75*
G03X195834000Y-70866000I-2286000J0D01*
G01*
G04 #@! TO.C,J4*
X182546666Y-93202380D02*
X182546666Y-93916666D01*
X182499047Y-94059523D01*
X182403809Y-94154761D01*
X182260952Y-94202380D01*
X182165714Y-94202380D01*
X183451428Y-93535714D02*
X183451428Y-94202380D01*
X183213333Y-93154761D02*
X182975238Y-93869047D01*
X183594285Y-93869047D01*
G04 #@! TO.C,J2*
X130476666Y-93642380D02*
X130476666Y-94356666D01*
X130429047Y-94499523D01*
X130333809Y-94594761D01*
X130190952Y-94642380D01*
X130095714Y-94642380D01*
X130905238Y-93737619D02*
X130952857Y-93690000D01*
X131048095Y-93642380D01*
X131286190Y-93642380D01*
X131381428Y-93690000D01*
X131429047Y-93737619D01*
X131476666Y-93832857D01*
X131476666Y-93928095D01*
X131429047Y-94070952D01*
X130857619Y-94642380D01*
X131476666Y-94642380D01*
G04 #@! TO.C,J1*
X179582380Y-80343333D02*
X180296666Y-80343333D01*
X180439523Y-80390952D01*
X180534761Y-80486190D01*
X180582380Y-80629047D01*
X180582380Y-80724285D01*
X180582380Y-79343333D02*
X180582380Y-79914761D01*
X180582380Y-79629047D02*
X179582380Y-79629047D01*
X179725238Y-79724285D01*
X179820476Y-79819523D01*
X179868095Y-79914761D01*
G04 #@! TO.C,J5*
X161802380Y-80343333D02*
X162516666Y-80343333D01*
X162659523Y-80390952D01*
X162754761Y-80486190D01*
X162802380Y-80629047D01*
X162802380Y-80724285D01*
X161802380Y-79390952D02*
X161802380Y-79867142D01*
X162278571Y-79914761D01*
X162230952Y-79867142D01*
X162183333Y-79771904D01*
X162183333Y-79533809D01*
X162230952Y-79438571D01*
X162278571Y-79390952D01*
X162373809Y-79343333D01*
X162611904Y-79343333D01*
X162707142Y-79390952D01*
X162754761Y-79438571D01*
X162802380Y-79533809D01*
X162802380Y-79771904D01*
X162754761Y-79867142D01*
X162707142Y-79914761D01*
G04 #@! TO.C,J3*
X171116666Y-103382380D02*
X171116666Y-104096666D01*
X171069047Y-104239523D01*
X170973809Y-104334761D01*
X170830952Y-104382380D01*
X170735714Y-104382380D01*
X171497619Y-103382380D02*
X172116666Y-103382380D01*
X171783333Y-103763333D01*
X171926190Y-103763333D01*
X172021428Y-103810952D01*
X172069047Y-103858571D01*
X172116666Y-103953809D01*
X172116666Y-104191904D01*
X172069047Y-104287142D01*
X172021428Y-104334761D01*
X171926190Y-104382380D01*
X171640476Y-104382380D01*
X171545238Y-104334761D01*
X171497619Y-104287142D01*
G04 #@! TO.C,P1*
X195016380Y-93194095D02*
X194016380Y-93194095D01*
X194016380Y-92813142D01*
X194064000Y-92717904D01*
X194111619Y-92670285D01*
X194206857Y-92622666D01*
X194349714Y-92622666D01*
X194444952Y-92670285D01*
X194492571Y-92717904D01*
X194540190Y-92813142D01*
X194540190Y-93194095D01*
X195016380Y-91670285D02*
X195016380Y-92241714D01*
X195016380Y-91956000D02*
X194016380Y-91956000D01*
X194159238Y-92051238D01*
X194254476Y-92146476D01*
X194302095Y-92241714D01*
G04 #@! TO.C,P2*
X139469904Y-116784380D02*
X139469904Y-115784380D01*
X139850857Y-115784380D01*
X139946095Y-115832000D01*
X139993714Y-115879619D01*
X140041333Y-115974857D01*
X140041333Y-116117714D01*
X139993714Y-116212952D01*
X139946095Y-116260571D01*
X139850857Y-116308190D01*
X139469904Y-116308190D01*
X140422285Y-115879619D02*
X140469904Y-115832000D01*
X140565142Y-115784380D01*
X140803238Y-115784380D01*
X140898476Y-115832000D01*
X140946095Y-115879619D01*
X140993714Y-115974857D01*
X140993714Y-116070095D01*
X140946095Y-116212952D01*
X140374666Y-116784380D01*
X140993714Y-116784380D01*
G04 #@! TO.C,P3*
X162329904Y-117038380D02*
X162329904Y-116038380D01*
X162710857Y-116038380D01*
X162806095Y-116086000D01*
X162853714Y-116133619D01*
X162901333Y-116228857D01*
X162901333Y-116371714D01*
X162853714Y-116466952D01*
X162806095Y-116514571D01*
X162710857Y-116562190D01*
X162329904Y-116562190D01*
X163234666Y-116038380D02*
X163853714Y-116038380D01*
X163520380Y-116419333D01*
X163663238Y-116419333D01*
X163758476Y-116466952D01*
X163806095Y-116514571D01*
X163853714Y-116609809D01*
X163853714Y-116847904D01*
X163806095Y-116943142D01*
X163758476Y-116990761D01*
X163663238Y-117038380D01*
X163377523Y-117038380D01*
X163282285Y-116990761D01*
X163234666Y-116943142D01*
G04 #@! TO.C,P4*
X185189904Y-116784380D02*
X185189904Y-115784380D01*
X185570857Y-115784380D01*
X185666095Y-115832000D01*
X185713714Y-115879619D01*
X185761333Y-115974857D01*
X185761333Y-116117714D01*
X185713714Y-116212952D01*
X185666095Y-116260571D01*
X185570857Y-116308190D01*
X185189904Y-116308190D01*
X186618476Y-116117714D02*
X186618476Y-116784380D01*
X186380380Y-115736761D02*
X186142285Y-116451047D01*
X186761333Y-116451047D01*
G04 #@! TO.C,P5*
X132865904Y-74112380D02*
X132865904Y-73112380D01*
X133246857Y-73112380D01*
X133342095Y-73160000D01*
X133389714Y-73207619D01*
X133437333Y-73302857D01*
X133437333Y-73445714D01*
X133389714Y-73540952D01*
X133342095Y-73588571D01*
X133246857Y-73636190D01*
X132865904Y-73636190D01*
X134342095Y-73112380D02*
X133865904Y-73112380D01*
X133818285Y-73588571D01*
X133865904Y-73540952D01*
X133961142Y-73493333D01*
X134199238Y-73493333D01*
X134294476Y-73540952D01*
X134342095Y-73588571D01*
X134389714Y-73683809D01*
X134389714Y-73921904D01*
X134342095Y-74017142D01*
X134294476Y-74064761D01*
X134199238Y-74112380D01*
X133961142Y-74112380D01*
X133865904Y-74064761D01*
X133818285Y-74017142D01*
G04 #@! TO.C,P6*
X157249904Y-74112380D02*
X157249904Y-73112380D01*
X157630857Y-73112380D01*
X157726095Y-73160000D01*
X157773714Y-73207619D01*
X157821333Y-73302857D01*
X157821333Y-73445714D01*
X157773714Y-73540952D01*
X157726095Y-73588571D01*
X157630857Y-73636190D01*
X157249904Y-73636190D01*
X158678476Y-73112380D02*
X158488000Y-73112380D01*
X158392761Y-73160000D01*
X158345142Y-73207619D01*
X158249904Y-73350476D01*
X158202285Y-73540952D01*
X158202285Y-73921904D01*
X158249904Y-74017142D01*
X158297523Y-74064761D01*
X158392761Y-74112380D01*
X158583238Y-74112380D01*
X158678476Y-74064761D01*
X158726095Y-74017142D01*
X158773714Y-73921904D01*
X158773714Y-73683809D01*
X158726095Y-73588571D01*
X158678476Y-73540952D01*
X158583238Y-73493333D01*
X158392761Y-73493333D01*
X158297523Y-73540952D01*
X158249904Y-73588571D01*
X158202285Y-73683809D01*
G04 #@! TO.C,P7*
X180109904Y-74112380D02*
X180109904Y-73112380D01*
X180490857Y-73112380D01*
X180586095Y-73160000D01*
X180633714Y-73207619D01*
X180681333Y-73302857D01*
X180681333Y-73445714D01*
X180633714Y-73540952D01*
X180586095Y-73588571D01*
X180490857Y-73636190D01*
X180109904Y-73636190D01*
X181014666Y-73112380D02*
X181681333Y-73112380D01*
X181252761Y-74112380D01*
G04 #@! TD*
M02*
