G04 #@! TF.GenerationSoftware,KiCad,Pcbnew,5.0.2+dfsg1-1*
G04 #@! TF.CreationDate,2020-02-13T15:26:16-05:00*
G04 #@! TF.ProjectId,poolV1,706f6f6c-5631-42e6-9b69-6361645f7063,rev?*
G04 #@! TF.SameCoordinates,Original*
G04 #@! TF.FileFunction,Copper,L1,Top*
G04 #@! TF.FilePolarity,Positive*
%FSLAX46Y46*%
G04 Gerber Fmt 4.6, Leading zero omitted, Abs format (unit mm)*
G04 Created by KiCad (PCBNEW 5.0.2+dfsg1-1) date Thu 13 Feb 2020 03:26:16 PM -05*
%MOMM*%
%LPD*%
G01*
G04 APERTURE LIST*
G04 #@! TA.AperFunction,NonConductor*
%ADD10C,0.500000*%
G04 #@! TD*
G04 #@! TA.AperFunction,ComponentPad*
%ADD11R,1.700000X1.700000*%
G04 #@! TD*
G04 #@! TA.AperFunction,ComponentPad*
%ADD12O,1.700000X1.700000*%
G04 #@! TD*
G04 #@! TA.AperFunction,ComponentPad*
%ADD13C,1.727200*%
G04 #@! TD*
G04 #@! TA.AperFunction,ComponentPad*
%ADD14O,1.727200X1.727200*%
G04 #@! TD*
G04 #@! TA.AperFunction,ComponentPad*
%ADD15O,1.727200X2.032000*%
G04 #@! TD*
G04 #@! TA.AperFunction,ComponentPad*
%ADD16C,4.064000*%
G04 #@! TD*
G04 #@! TA.AperFunction,Conductor*
%ADD17C,0.700000*%
G04 #@! TD*
G04 APERTURE END LIST*
D10*
X108124761Y-88724285D02*
X110124761Y-88057619D01*
X108124761Y-87390952D01*
X110124761Y-86724285D02*
X108124761Y-86724285D01*
X108124761Y-86057619D02*
X108124761Y-84914761D01*
X110124761Y-85486190D02*
X108124761Y-85486190D01*
X110124761Y-83105238D02*
X109172380Y-83771904D01*
X110124761Y-84248095D02*
X108124761Y-84248095D01*
X108124761Y-83486190D01*
X108220000Y-83295714D01*
X108315238Y-83200476D01*
X108505714Y-83105238D01*
X108791428Y-83105238D01*
X108981904Y-83200476D01*
X109077142Y-83295714D01*
X109172380Y-83486190D01*
X109172380Y-84248095D01*
X108124761Y-81867142D02*
X108124761Y-81486190D01*
X108220000Y-81295714D01*
X108410476Y-81105238D01*
X108791428Y-81010000D01*
X109458095Y-81010000D01*
X109839047Y-81105238D01*
X110029523Y-81295714D01*
X110124761Y-81486190D01*
X110124761Y-81867142D01*
X110029523Y-82057619D01*
X109839047Y-82248095D01*
X109458095Y-82343333D01*
X108791428Y-82343333D01*
X108410476Y-82248095D01*
X108220000Y-82057619D01*
X108124761Y-81867142D01*
X109553333Y-80248095D02*
X109553333Y-79295714D01*
X110124761Y-80438571D02*
X108124761Y-79771904D01*
X110124761Y-79105238D01*
X109934285Y-77295714D02*
X110029523Y-77390952D01*
X110124761Y-77676666D01*
X110124761Y-77867142D01*
X110029523Y-78152857D01*
X109839047Y-78343333D01*
X109648571Y-78438571D01*
X109267619Y-78533809D01*
X108981904Y-78533809D01*
X108600952Y-78438571D01*
X108410476Y-78343333D01*
X108220000Y-78152857D01*
X108124761Y-77867142D01*
X108124761Y-77676666D01*
X108220000Y-77390952D01*
X108315238Y-77295714D01*
X109934285Y-75295714D02*
X110029523Y-75390952D01*
X110124761Y-75676666D01*
X110124761Y-75867142D01*
X110029523Y-76152857D01*
X109839047Y-76343333D01*
X109648571Y-76438571D01*
X109267619Y-76533809D01*
X108981904Y-76533809D01*
X108600952Y-76438571D01*
X108410476Y-76343333D01*
X108220000Y-76152857D01*
X108124761Y-75867142D01*
X108124761Y-75676666D01*
X108220000Y-75390952D01*
X108315238Y-75295714D01*
X108124761Y-74438571D02*
X109743809Y-74438571D01*
X109934285Y-74343333D01*
X110029523Y-74248095D01*
X110124761Y-74057619D01*
X110124761Y-73676666D01*
X110029523Y-73486190D01*
X109934285Y-73390952D01*
X109743809Y-73295714D01*
X108124761Y-73295714D01*
X109553333Y-72438571D02*
X109553333Y-71486190D01*
X110124761Y-72629047D02*
X108124761Y-71962380D01*
X110124761Y-71295714D01*
D11*
G04 #@! TO.P,J4,1*
G04 #@! TO.N,+5V*
X182880000Y-96520000D03*
G04 #@! TD*
G04 #@! TO.P,J2,1*
G04 #@! TO.N,GND*
X130810000Y-96520000D03*
D12*
G04 #@! TO.P,J2,2*
G04 #@! TO.N,/20(SDA)*
X130810000Y-99060000D03*
G04 #@! TO.P,J2,3*
G04 #@! TO.N,/21(SCL)*
X130810000Y-101600000D03*
G04 #@! TO.P,J2,4*
G04 #@! TO.N,+5V*
X130810000Y-104140000D03*
G04 #@! TD*
G04 #@! TO.P,J1,4*
G04 #@! TO.N,GND*
X170180000Y-80010000D03*
G04 #@! TO.P,J1,3*
G04 #@! TO.N,/18(Tx1)*
X172720000Y-80010000D03*
G04 #@! TO.P,J1,2*
G04 #@! TO.N,/19(Rx1)*
X175260000Y-80010000D03*
D11*
G04 #@! TO.P,J1,1*
G04 #@! TO.N,+5V*
X177800000Y-80010000D03*
G04 #@! TD*
G04 #@! TO.P,J5,1*
G04 #@! TO.N,GND*
X160020000Y-80010000D03*
D12*
G04 #@! TO.P,J5,2*
G04 #@! TO.N,/4(\002A\002A)*
X157480000Y-80010000D03*
G04 #@! TO.P,J5,3*
G04 #@! TO.N,/5(\002A\002A)*
X154940000Y-80010000D03*
G04 #@! TO.P,J5,4*
G04 #@! TO.N,/6(\002A\002A)*
X152400000Y-80010000D03*
G04 #@! TO.P,J5,5*
G04 #@! TO.N,/7(\002A\002A)*
X149860000Y-80010000D03*
G04 #@! TO.P,J5,6*
G04 #@! TO.N,/8(\002A\002A)*
X147320000Y-80010000D03*
G04 #@! TO.P,J5,7*
G04 #@! TO.N,/9(\002A\002A)*
X144780000Y-80010000D03*
G04 #@! TO.P,J5,8*
G04 #@! TO.N,/10(\002A\002A)*
X142240000Y-80010000D03*
G04 #@! TO.P,J5,9*
G04 #@! TO.N,/11(\002A\002A)*
X139700000Y-80010000D03*
G04 #@! TO.P,J5,10*
G04 #@! TO.N,+5V*
X137160000Y-80010000D03*
G04 #@! TD*
D11*
G04 #@! TO.P,J3,1*
G04 #@! TO.N,/21(SCL)*
X171450000Y-101600000D03*
D12*
G04 #@! TO.P,J3,2*
G04 #@! TO.N,/20(SDA)*
X171450000Y-99060000D03*
G04 #@! TO.P,J3,3*
G04 #@! TO.N,+5V*
X171450000Y-96520000D03*
G04 #@! TO.P,J3,4*
G04 #@! TO.N,GND*
X171450000Y-93980000D03*
G04 #@! TD*
D13*
G04 #@! TO.P,P1,1*
G04 #@! TO.N,GND*
X197358000Y-114046000D03*
D14*
G04 #@! TO.P,P1,2*
X199898000Y-114046000D03*
G04 #@! TO.P,P1,3*
G04 #@! TO.N,/52(SCK)*
X197358000Y-111506000D03*
G04 #@! TO.P,P1,4*
G04 #@! TO.N,/53(SS)*
X199898000Y-111506000D03*
G04 #@! TO.P,P1,5*
G04 #@! TO.N,/50(MISO)*
X197358000Y-108966000D03*
G04 #@! TO.P,P1,6*
G04 #@! TO.N,/51(MOSI)*
X199898000Y-108966000D03*
G04 #@! TO.P,P1,7*
G04 #@! TO.N,/48*
X197358000Y-106426000D03*
G04 #@! TO.P,P1,8*
G04 #@! TO.N,/49*
X199898000Y-106426000D03*
G04 #@! TO.P,P1,9*
G04 #@! TO.N,/46*
X197358000Y-103886000D03*
G04 #@! TO.P,P1,10*
G04 #@! TO.N,/47*
X199898000Y-103886000D03*
G04 #@! TO.P,P1,11*
G04 #@! TO.N,/44*
X197358000Y-101346000D03*
G04 #@! TO.P,P1,12*
G04 #@! TO.N,/45*
X199898000Y-101346000D03*
G04 #@! TO.P,P1,13*
G04 #@! TO.N,/42*
X197358000Y-98806000D03*
G04 #@! TO.P,P1,14*
G04 #@! TO.N,/43*
X199898000Y-98806000D03*
G04 #@! TO.P,P1,15*
G04 #@! TO.N,/40*
X197358000Y-96266000D03*
G04 #@! TO.P,P1,16*
G04 #@! TO.N,/41*
X199898000Y-96266000D03*
G04 #@! TO.P,P1,17*
G04 #@! TO.N,/38*
X197358000Y-93726000D03*
G04 #@! TO.P,P1,18*
G04 #@! TO.N,/39*
X199898000Y-93726000D03*
G04 #@! TO.P,P1,19*
G04 #@! TO.N,/36*
X197358000Y-91186000D03*
G04 #@! TO.P,P1,20*
G04 #@! TO.N,/37*
X199898000Y-91186000D03*
G04 #@! TO.P,P1,21*
G04 #@! TO.N,/34*
X197358000Y-88646000D03*
G04 #@! TO.P,P1,22*
G04 #@! TO.N,/35*
X199898000Y-88646000D03*
G04 #@! TO.P,P1,23*
G04 #@! TO.N,/32*
X197358000Y-86106000D03*
G04 #@! TO.P,P1,24*
G04 #@! TO.N,/33*
X199898000Y-86106000D03*
G04 #@! TO.P,P1,25*
G04 #@! TO.N,/30*
X197358000Y-83566000D03*
G04 #@! TO.P,P1,26*
G04 #@! TO.N,/31*
X199898000Y-83566000D03*
G04 #@! TO.P,P1,27*
G04 #@! TO.N,/28*
X197358000Y-81026000D03*
G04 #@! TO.P,P1,28*
G04 #@! TO.N,/29*
X199898000Y-81026000D03*
G04 #@! TO.P,P1,29*
G04 #@! TO.N,/26*
X197358000Y-78486000D03*
G04 #@! TO.P,P1,30*
G04 #@! TO.N,/27*
X199898000Y-78486000D03*
G04 #@! TO.P,P1,31*
G04 #@! TO.N,/24*
X197358000Y-75946000D03*
G04 #@! TO.P,P1,32*
G04 #@! TO.N,/25*
X199898000Y-75946000D03*
G04 #@! TO.P,P1,33*
G04 #@! TO.N,/22*
X197358000Y-73406000D03*
G04 #@! TO.P,P1,34*
G04 #@! TO.N,/23*
X199898000Y-73406000D03*
G04 #@! TO.P,P1,35*
G04 #@! TO.N,+5V*
X197358000Y-70866000D03*
G04 #@! TO.P,P1,36*
X199898000Y-70866000D03*
G04 #@! TD*
D15*
G04 #@! TO.P,P2,1*
G04 #@! TO.N,Net-(P2-Pad1)*
X131318000Y-119126000D03*
G04 #@! TO.P,P2,2*
G04 #@! TO.N,/IOREF*
X133858000Y-119126000D03*
G04 #@! TO.P,P2,3*
G04 #@! TO.N,/Reset*
X136398000Y-119126000D03*
G04 #@! TO.P,P2,4*
G04 #@! TO.N,+3V3*
X138938000Y-119126000D03*
G04 #@! TO.P,P2,5*
G04 #@! TO.N,+5V*
X141478000Y-119126000D03*
G04 #@! TO.P,P2,6*
G04 #@! TO.N,GND*
X144018000Y-119126000D03*
G04 #@! TO.P,P2,7*
X146558000Y-119126000D03*
G04 #@! TO.P,P2,8*
G04 #@! TO.N,/Vin*
X149098000Y-119126000D03*
G04 #@! TD*
G04 #@! TO.P,P3,1*
G04 #@! TO.N,/A0*
X154178000Y-119126000D03*
G04 #@! TO.P,P3,2*
G04 #@! TO.N,/A1*
X156718000Y-119126000D03*
G04 #@! TO.P,P3,3*
G04 #@! TO.N,/A2*
X159258000Y-119126000D03*
G04 #@! TO.P,P3,4*
G04 #@! TO.N,/A3*
X161798000Y-119126000D03*
G04 #@! TO.P,P3,5*
G04 #@! TO.N,/A4*
X164338000Y-119126000D03*
G04 #@! TO.P,P3,6*
G04 #@! TO.N,/A5*
X166878000Y-119126000D03*
G04 #@! TO.P,P3,7*
G04 #@! TO.N,/A6*
X169418000Y-119126000D03*
G04 #@! TO.P,P3,8*
G04 #@! TO.N,/A7*
X171958000Y-119126000D03*
G04 #@! TD*
G04 #@! TO.P,P4,1*
G04 #@! TO.N,/A8*
X177038000Y-119126000D03*
G04 #@! TO.P,P4,2*
G04 #@! TO.N,/A9*
X179578000Y-119126000D03*
G04 #@! TO.P,P4,3*
G04 #@! TO.N,/A10*
X182118000Y-119126000D03*
G04 #@! TO.P,P4,4*
G04 #@! TO.N,/A11*
X184658000Y-119126000D03*
G04 #@! TO.P,P4,5*
G04 #@! TO.N,/A12*
X187198000Y-119126000D03*
G04 #@! TO.P,P4,6*
G04 #@! TO.N,/A13*
X189738000Y-119126000D03*
G04 #@! TO.P,P4,7*
G04 #@! TO.N,/A14*
X192278000Y-119126000D03*
G04 #@! TO.P,P4,8*
G04 #@! TO.N,/A15*
X194818000Y-119126000D03*
G04 #@! TD*
G04 #@! TO.P,P5,1*
G04 #@! TO.N,/SCL*
X122174000Y-70866000D03*
G04 #@! TO.P,P5,2*
G04 #@! TO.N,/SDA*
X124714000Y-70866000D03*
G04 #@! TO.P,P5,3*
G04 #@! TO.N,/AREF*
X127254000Y-70866000D03*
G04 #@! TO.P,P5,4*
G04 #@! TO.N,GND*
X129794000Y-70866000D03*
G04 #@! TO.P,P5,5*
G04 #@! TO.N,/13(\002A\002A)*
X132334000Y-70866000D03*
G04 #@! TO.P,P5,6*
G04 #@! TO.N,/12(\002A\002A)*
X134874000Y-70866000D03*
G04 #@! TO.P,P5,7*
G04 #@! TO.N,/11(\002A\002A)*
X137414000Y-70866000D03*
G04 #@! TO.P,P5,8*
G04 #@! TO.N,/10(\002A\002A)*
X139954000Y-70866000D03*
G04 #@! TO.P,P5,9*
G04 #@! TO.N,/9(\002A\002A)*
X142494000Y-70866000D03*
G04 #@! TO.P,P5,10*
G04 #@! TO.N,/8(\002A\002A)*
X145034000Y-70866000D03*
G04 #@! TD*
G04 #@! TO.P,P6,1*
G04 #@! TO.N,/7(\002A\002A)*
X149098000Y-70866000D03*
G04 #@! TO.P,P6,2*
G04 #@! TO.N,/6(\002A\002A)*
X151638000Y-70866000D03*
G04 #@! TO.P,P6,3*
G04 #@! TO.N,/5(\002A\002A)*
X154178000Y-70866000D03*
G04 #@! TO.P,P6,4*
G04 #@! TO.N,/4(\002A\002A)*
X156718000Y-70866000D03*
G04 #@! TO.P,P6,5*
G04 #@! TO.N,/3(\002A\002A)*
X159258000Y-70866000D03*
G04 #@! TO.P,P6,6*
G04 #@! TO.N,/2(\002A\002A)*
X161798000Y-70866000D03*
G04 #@! TO.P,P6,7*
G04 #@! TO.N,/1(Tx0)*
X164338000Y-70866000D03*
G04 #@! TO.P,P6,8*
G04 #@! TO.N,/0(Rx0)*
X166878000Y-70866000D03*
G04 #@! TD*
G04 #@! TO.P,P7,1*
G04 #@! TO.N,/14(Tx3)*
X171958000Y-70866000D03*
G04 #@! TO.P,P7,2*
G04 #@! TO.N,/15(Rx3)*
X174498000Y-70866000D03*
G04 #@! TO.P,P7,3*
G04 #@! TO.N,/16(Tx2)*
X177038000Y-70866000D03*
G04 #@! TO.P,P7,4*
G04 #@! TO.N,/17(Rx2)*
X179578000Y-70866000D03*
G04 #@! TO.P,P7,5*
G04 #@! TO.N,/18(Tx1)*
X182118000Y-70866000D03*
G04 #@! TO.P,P7,6*
G04 #@! TO.N,/19(Rx1)*
X184658000Y-70866000D03*
G04 #@! TO.P,P7,7*
G04 #@! TO.N,/20(SDA)*
X187198000Y-70866000D03*
G04 #@! TO.P,P7,8*
G04 #@! TO.N,/21(SCL)*
X189738000Y-70866000D03*
G04 #@! TD*
D16*
G04 #@! TO.P,P8,1*
G04 #@! TO.N,Net-(P8-Pad1)*
X117348000Y-119126000D03*
G04 #@! TD*
G04 #@! TO.P,P9,1*
G04 #@! TO.N,Net-(P9-Pad1)*
X169418000Y-114046000D03*
G04 #@! TD*
G04 #@! TO.P,P10,1*
G04 #@! TO.N,Net-(P10-Pad1)*
X199898000Y-119126000D03*
G04 #@! TD*
G04 #@! TO.P,P11,1*
G04 #@! TO.N,Net-(P11-Pad1)*
X118618000Y-70866000D03*
G04 #@! TD*
G04 #@! TO.P,P12,1*
G04 #@! TO.N,Net-(P12-Pad1)*
X169418000Y-86106000D03*
G04 #@! TD*
G04 #@! TO.P,P13,1*
G04 #@! TO.N,Net-(P13-Pad1)*
X193548000Y-70866000D03*
G04 #@! TD*
D17*
G04 #@! TO.N,GND*
X129540000Y-71120000D02*
X129794000Y-70866000D01*
G04 #@! TO.N,+5V*
X197358000Y-70892000D02*
X197358000Y-70866000D01*
G04 #@! TO.N,/SCL*
X121920000Y-71120000D02*
X122174000Y-70866000D01*
G04 #@! TO.N,/SDA*
X124460000Y-71120000D02*
X124714000Y-70866000D01*
G04 #@! TO.N,/11(\002A\002A)*
X137414000Y-71018400D02*
X137414000Y-70866000D01*
G04 #@! TO.N,/10(\002A\002A)*
X139954000Y-71018400D02*
X139954000Y-70866000D01*
G04 #@! TO.N,/9(\002A\002A)*
X142494000Y-71018400D02*
X142494000Y-70866000D01*
G04 #@! TO.N,/18(Tx1)*
X182118000Y-71018400D02*
X182118000Y-70866000D01*
G04 #@! TO.N,/19(Rx1)*
X184658000Y-70866000D02*
X184658000Y-71018400D01*
G04 #@! TD*
M02*
