G04 #@! TF.GenerationSoftware,KiCad,Pcbnew,5.0.2+dfsg1-1*
G04 #@! TF.CreationDate,2020-02-13T15:26:16-05:00*
G04 #@! TF.ProjectId,poolV1,706f6f6c-5631-42e6-9b69-6361645f7063,rev?*
G04 #@! TF.SameCoordinates,Original*
G04 #@! TF.FileFunction,Other,User*
%FSLAX46Y46*%
G04 Gerber Fmt 4.6, Leading zero omitted, Abs format (unit mm)*
G04 Created by KiCad (PCBNEW 5.0.2+dfsg1-1) date Thu 13 Feb 2020 03:26:16 PM -05*
%MOMM*%
%LPD*%
G01*
G04 APERTURE LIST*
%ADD10C,0.050000*%
G04 APERTURE END LIST*
D10*
G04 #@! TO.C,J4*
X181080000Y-94720000D02*
X184630000Y-94720000D01*
X184630000Y-94720000D02*
X184630000Y-98270000D01*
X184630000Y-98270000D02*
X181080000Y-98270000D01*
X181080000Y-98270000D02*
X181080000Y-94720000D01*
G04 #@! TO.C,J2*
X129010000Y-94720000D02*
X129010000Y-105920000D01*
X129010000Y-105920000D02*
X132610000Y-105920000D01*
X132610000Y-105920000D02*
X132610000Y-94720000D01*
X132610000Y-94720000D02*
X129010000Y-94720000D01*
G04 #@! TO.C,J1*
X179600000Y-81810000D02*
X179600000Y-78210000D01*
X168400000Y-81810000D02*
X179600000Y-81810000D01*
X168400000Y-78210000D02*
X168400000Y-81810000D01*
X179600000Y-78210000D02*
X168400000Y-78210000D01*
G04 #@! TO.C,J5*
X161820000Y-78210000D02*
X135370000Y-78210000D01*
X135370000Y-78210000D02*
X135370000Y-81810000D01*
X135370000Y-81810000D02*
X161820000Y-81810000D01*
X161820000Y-81810000D02*
X161820000Y-78210000D01*
G04 #@! TO.C,J3*
X173250000Y-103400000D02*
X173250000Y-92200000D01*
X173250000Y-92200000D02*
X169650000Y-92200000D01*
X169650000Y-92200000D02*
X169650000Y-103400000D01*
X169650000Y-103400000D02*
X173250000Y-103400000D01*
G04 #@! TO.C,P1*
X195608000Y-115796000D02*
X201658000Y-115796000D01*
X195608000Y-69096000D02*
X201658000Y-69096000D01*
X195608000Y-115796000D02*
X195608000Y-69096000D01*
X201658000Y-115796000D02*
X201658000Y-69096000D01*
G04 #@! TO.C,P2*
X129568000Y-117376000D02*
X129568000Y-120876000D01*
X150868000Y-117376000D02*
X150868000Y-120876000D01*
X129568000Y-117376000D02*
X150868000Y-117376000D01*
X129568000Y-120876000D02*
X150868000Y-120876000D01*
G04 #@! TO.C,P3*
X152428000Y-117376000D02*
X152428000Y-120876000D01*
X173728000Y-117376000D02*
X173728000Y-120876000D01*
X152428000Y-117376000D02*
X173728000Y-117376000D01*
X152428000Y-120876000D02*
X173728000Y-120876000D01*
G04 #@! TO.C,P4*
X175288000Y-117376000D02*
X175288000Y-120876000D01*
X196588000Y-117376000D02*
X196588000Y-120876000D01*
X175288000Y-117376000D02*
X196588000Y-117376000D01*
X175288000Y-120876000D02*
X196588000Y-120876000D01*
G04 #@! TO.C,P5*
X120424000Y-69116000D02*
X120424000Y-72616000D01*
X146824000Y-69116000D02*
X146824000Y-72616000D01*
X120424000Y-69116000D02*
X146824000Y-69116000D01*
X120424000Y-72616000D02*
X146824000Y-72616000D01*
G04 #@! TO.C,P6*
X147348000Y-69116000D02*
X147348000Y-72616000D01*
X168648000Y-69116000D02*
X168648000Y-72616000D01*
X147348000Y-69116000D02*
X168648000Y-69116000D01*
X147348000Y-72616000D02*
X168648000Y-72616000D01*
G04 #@! TO.C,P7*
X170208000Y-69116000D02*
X170208000Y-72616000D01*
X191508000Y-69116000D02*
X191508000Y-72616000D01*
X170208000Y-69116000D02*
X191508000Y-69116000D01*
X170208000Y-72616000D02*
X191508000Y-72616000D01*
G04 #@! TD*
M02*
