G04 #@! TF.GenerationSoftware,KiCad,Pcbnew,5.0.2+dfsg1-1*
G04 #@! TF.CreationDate,2020-02-13T15:26:16-05:00*
G04 #@! TF.ProjectId,poolV1,706f6f6c-5631-42e6-9b69-6361645f7063,rev?*
G04 #@! TF.SameCoordinates,Original*
G04 #@! TF.FileFunction,Copper,L2,Bot*
G04 #@! TF.FilePolarity,Positive*
%FSLAX46Y46*%
G04 Gerber Fmt 4.6, Leading zero omitted, Abs format (unit mm)*
G04 Created by KiCad (PCBNEW 5.0.2+dfsg1-1) date Thu 13 Feb 2020 03:26:16 PM -05*
%MOMM*%
%LPD*%
G01*
G04 APERTURE LIST*
G04 #@! TA.AperFunction,ComponentPad*
%ADD10R,1.700000X1.700000*%
G04 #@! TD*
G04 #@! TA.AperFunction,ComponentPad*
%ADD11O,1.700000X1.700000*%
G04 #@! TD*
G04 #@! TA.AperFunction,ComponentPad*
%ADD12C,1.727200*%
G04 #@! TD*
G04 #@! TA.AperFunction,ComponentPad*
%ADD13O,1.727200X1.727200*%
G04 #@! TD*
G04 #@! TA.AperFunction,ComponentPad*
%ADD14O,1.727200X2.032000*%
G04 #@! TD*
G04 #@! TA.AperFunction,ComponentPad*
%ADD15C,4.064000*%
G04 #@! TD*
G04 #@! TA.AperFunction,Conductor*
%ADD16C,0.700000*%
G04 #@! TD*
G04 #@! TA.AperFunction,Conductor*
%ADD17C,0.400000*%
G04 #@! TD*
G04 #@! TA.AperFunction,Conductor*
%ADD18C,0.300000*%
G04 #@! TD*
G04 #@! TA.AperFunction,Conductor*
%ADD19C,0.250000*%
G04 #@! TD*
G04 APERTURE END LIST*
D10*
G04 #@! TO.P,J4,1*
G04 #@! TO.N,+5V*
X182880000Y-96520000D03*
G04 #@! TD*
G04 #@! TO.P,J2,1*
G04 #@! TO.N,GND*
X130810000Y-96520000D03*
D11*
G04 #@! TO.P,J2,2*
G04 #@! TO.N,/20(SDA)*
X130810000Y-99060000D03*
G04 #@! TO.P,J2,3*
G04 #@! TO.N,/21(SCL)*
X130810000Y-101600000D03*
G04 #@! TO.P,J2,4*
G04 #@! TO.N,+5V*
X130810000Y-104140000D03*
G04 #@! TD*
G04 #@! TO.P,J1,4*
G04 #@! TO.N,GND*
X170180000Y-80010000D03*
G04 #@! TO.P,J1,3*
G04 #@! TO.N,/18(Tx1)*
X172720000Y-80010000D03*
G04 #@! TO.P,J1,2*
G04 #@! TO.N,/19(Rx1)*
X175260000Y-80010000D03*
D10*
G04 #@! TO.P,J1,1*
G04 #@! TO.N,+5V*
X177800000Y-80010000D03*
G04 #@! TD*
G04 #@! TO.P,J5,1*
G04 #@! TO.N,GND*
X160020000Y-80010000D03*
D11*
G04 #@! TO.P,J5,2*
G04 #@! TO.N,/4(\002A\002A)*
X157480000Y-80010000D03*
G04 #@! TO.P,J5,3*
G04 #@! TO.N,/5(\002A\002A)*
X154940000Y-80010000D03*
G04 #@! TO.P,J5,4*
G04 #@! TO.N,/6(\002A\002A)*
X152400000Y-80010000D03*
G04 #@! TO.P,J5,5*
G04 #@! TO.N,/7(\002A\002A)*
X149860000Y-80010000D03*
G04 #@! TO.P,J5,6*
G04 #@! TO.N,/8(\002A\002A)*
X147320000Y-80010000D03*
G04 #@! TO.P,J5,7*
G04 #@! TO.N,/9(\002A\002A)*
X144780000Y-80010000D03*
G04 #@! TO.P,J5,8*
G04 #@! TO.N,/10(\002A\002A)*
X142240000Y-80010000D03*
G04 #@! TO.P,J5,9*
G04 #@! TO.N,/11(\002A\002A)*
X139700000Y-80010000D03*
G04 #@! TO.P,J5,10*
G04 #@! TO.N,+5V*
X137160000Y-80010000D03*
G04 #@! TD*
D10*
G04 #@! TO.P,J3,1*
G04 #@! TO.N,/21(SCL)*
X171450000Y-101600000D03*
D11*
G04 #@! TO.P,J3,2*
G04 #@! TO.N,/20(SDA)*
X171450000Y-99060000D03*
G04 #@! TO.P,J3,3*
G04 #@! TO.N,+5V*
X171450000Y-96520000D03*
G04 #@! TO.P,J3,4*
G04 #@! TO.N,GND*
X171450000Y-93980000D03*
G04 #@! TD*
D12*
G04 #@! TO.P,P1,1*
G04 #@! TO.N,GND*
X197358000Y-114046000D03*
D13*
G04 #@! TO.P,P1,2*
X199898000Y-114046000D03*
G04 #@! TO.P,P1,3*
G04 #@! TO.N,/52(SCK)*
X197358000Y-111506000D03*
G04 #@! TO.P,P1,4*
G04 #@! TO.N,/53(SS)*
X199898000Y-111506000D03*
G04 #@! TO.P,P1,5*
G04 #@! TO.N,/50(MISO)*
X197358000Y-108966000D03*
G04 #@! TO.P,P1,6*
G04 #@! TO.N,/51(MOSI)*
X199898000Y-108966000D03*
G04 #@! TO.P,P1,7*
G04 #@! TO.N,/48*
X197358000Y-106426000D03*
G04 #@! TO.P,P1,8*
G04 #@! TO.N,/49*
X199898000Y-106426000D03*
G04 #@! TO.P,P1,9*
G04 #@! TO.N,/46*
X197358000Y-103886000D03*
G04 #@! TO.P,P1,10*
G04 #@! TO.N,/47*
X199898000Y-103886000D03*
G04 #@! TO.P,P1,11*
G04 #@! TO.N,/44*
X197358000Y-101346000D03*
G04 #@! TO.P,P1,12*
G04 #@! TO.N,/45*
X199898000Y-101346000D03*
G04 #@! TO.P,P1,13*
G04 #@! TO.N,/42*
X197358000Y-98806000D03*
G04 #@! TO.P,P1,14*
G04 #@! TO.N,/43*
X199898000Y-98806000D03*
G04 #@! TO.P,P1,15*
G04 #@! TO.N,/40*
X197358000Y-96266000D03*
G04 #@! TO.P,P1,16*
G04 #@! TO.N,/41*
X199898000Y-96266000D03*
G04 #@! TO.P,P1,17*
G04 #@! TO.N,/38*
X197358000Y-93726000D03*
G04 #@! TO.P,P1,18*
G04 #@! TO.N,/39*
X199898000Y-93726000D03*
G04 #@! TO.P,P1,19*
G04 #@! TO.N,/36*
X197358000Y-91186000D03*
G04 #@! TO.P,P1,20*
G04 #@! TO.N,/37*
X199898000Y-91186000D03*
G04 #@! TO.P,P1,21*
G04 #@! TO.N,/34*
X197358000Y-88646000D03*
G04 #@! TO.P,P1,22*
G04 #@! TO.N,/35*
X199898000Y-88646000D03*
G04 #@! TO.P,P1,23*
G04 #@! TO.N,/32*
X197358000Y-86106000D03*
G04 #@! TO.P,P1,24*
G04 #@! TO.N,/33*
X199898000Y-86106000D03*
G04 #@! TO.P,P1,25*
G04 #@! TO.N,/30*
X197358000Y-83566000D03*
G04 #@! TO.P,P1,26*
G04 #@! TO.N,/31*
X199898000Y-83566000D03*
G04 #@! TO.P,P1,27*
G04 #@! TO.N,/28*
X197358000Y-81026000D03*
G04 #@! TO.P,P1,28*
G04 #@! TO.N,/29*
X199898000Y-81026000D03*
G04 #@! TO.P,P1,29*
G04 #@! TO.N,/26*
X197358000Y-78486000D03*
G04 #@! TO.P,P1,30*
G04 #@! TO.N,/27*
X199898000Y-78486000D03*
G04 #@! TO.P,P1,31*
G04 #@! TO.N,/24*
X197358000Y-75946000D03*
G04 #@! TO.P,P1,32*
G04 #@! TO.N,/25*
X199898000Y-75946000D03*
G04 #@! TO.P,P1,33*
G04 #@! TO.N,/22*
X197358000Y-73406000D03*
G04 #@! TO.P,P1,34*
G04 #@! TO.N,/23*
X199898000Y-73406000D03*
G04 #@! TO.P,P1,35*
G04 #@! TO.N,+5V*
X197358000Y-70866000D03*
G04 #@! TO.P,P1,36*
X199898000Y-70866000D03*
G04 #@! TD*
D14*
G04 #@! TO.P,P2,1*
G04 #@! TO.N,Net-(P2-Pad1)*
X131318000Y-119126000D03*
G04 #@! TO.P,P2,2*
G04 #@! TO.N,/IOREF*
X133858000Y-119126000D03*
G04 #@! TO.P,P2,3*
G04 #@! TO.N,/Reset*
X136398000Y-119126000D03*
G04 #@! TO.P,P2,4*
G04 #@! TO.N,+3V3*
X138938000Y-119126000D03*
G04 #@! TO.P,P2,5*
G04 #@! TO.N,+5V*
X141478000Y-119126000D03*
G04 #@! TO.P,P2,6*
G04 #@! TO.N,GND*
X144018000Y-119126000D03*
G04 #@! TO.P,P2,7*
X146558000Y-119126000D03*
G04 #@! TO.P,P2,8*
G04 #@! TO.N,/Vin*
X149098000Y-119126000D03*
G04 #@! TD*
G04 #@! TO.P,P3,1*
G04 #@! TO.N,/A0*
X154178000Y-119126000D03*
G04 #@! TO.P,P3,2*
G04 #@! TO.N,/A1*
X156718000Y-119126000D03*
G04 #@! TO.P,P3,3*
G04 #@! TO.N,/A2*
X159258000Y-119126000D03*
G04 #@! TO.P,P3,4*
G04 #@! TO.N,/A3*
X161798000Y-119126000D03*
G04 #@! TO.P,P3,5*
G04 #@! TO.N,/A4*
X164338000Y-119126000D03*
G04 #@! TO.P,P3,6*
G04 #@! TO.N,/A5*
X166878000Y-119126000D03*
G04 #@! TO.P,P3,7*
G04 #@! TO.N,/A6*
X169418000Y-119126000D03*
G04 #@! TO.P,P3,8*
G04 #@! TO.N,/A7*
X171958000Y-119126000D03*
G04 #@! TD*
G04 #@! TO.P,P4,1*
G04 #@! TO.N,/A8*
X177038000Y-119126000D03*
G04 #@! TO.P,P4,2*
G04 #@! TO.N,/A9*
X179578000Y-119126000D03*
G04 #@! TO.P,P4,3*
G04 #@! TO.N,/A10*
X182118000Y-119126000D03*
G04 #@! TO.P,P4,4*
G04 #@! TO.N,/A11*
X184658000Y-119126000D03*
G04 #@! TO.P,P4,5*
G04 #@! TO.N,/A12*
X187198000Y-119126000D03*
G04 #@! TO.P,P4,6*
G04 #@! TO.N,/A13*
X189738000Y-119126000D03*
G04 #@! TO.P,P4,7*
G04 #@! TO.N,/A14*
X192278000Y-119126000D03*
G04 #@! TO.P,P4,8*
G04 #@! TO.N,/A15*
X194818000Y-119126000D03*
G04 #@! TD*
G04 #@! TO.P,P5,1*
G04 #@! TO.N,/SCL*
X122174000Y-70866000D03*
G04 #@! TO.P,P5,2*
G04 #@! TO.N,/SDA*
X124714000Y-70866000D03*
G04 #@! TO.P,P5,3*
G04 #@! TO.N,/AREF*
X127254000Y-70866000D03*
G04 #@! TO.P,P5,4*
G04 #@! TO.N,GND*
X129794000Y-70866000D03*
G04 #@! TO.P,P5,5*
G04 #@! TO.N,/13(\002A\002A)*
X132334000Y-70866000D03*
G04 #@! TO.P,P5,6*
G04 #@! TO.N,/12(\002A\002A)*
X134874000Y-70866000D03*
G04 #@! TO.P,P5,7*
G04 #@! TO.N,/11(\002A\002A)*
X137414000Y-70866000D03*
G04 #@! TO.P,P5,8*
G04 #@! TO.N,/10(\002A\002A)*
X139954000Y-70866000D03*
G04 #@! TO.P,P5,9*
G04 #@! TO.N,/9(\002A\002A)*
X142494000Y-70866000D03*
G04 #@! TO.P,P5,10*
G04 #@! TO.N,/8(\002A\002A)*
X145034000Y-70866000D03*
G04 #@! TD*
G04 #@! TO.P,P6,1*
G04 #@! TO.N,/7(\002A\002A)*
X149098000Y-70866000D03*
G04 #@! TO.P,P6,2*
G04 #@! TO.N,/6(\002A\002A)*
X151638000Y-70866000D03*
G04 #@! TO.P,P6,3*
G04 #@! TO.N,/5(\002A\002A)*
X154178000Y-70866000D03*
G04 #@! TO.P,P6,4*
G04 #@! TO.N,/4(\002A\002A)*
X156718000Y-70866000D03*
G04 #@! TO.P,P6,5*
G04 #@! TO.N,/3(\002A\002A)*
X159258000Y-70866000D03*
G04 #@! TO.P,P6,6*
G04 #@! TO.N,/2(\002A\002A)*
X161798000Y-70866000D03*
G04 #@! TO.P,P6,7*
G04 #@! TO.N,/1(Tx0)*
X164338000Y-70866000D03*
G04 #@! TO.P,P6,8*
G04 #@! TO.N,/0(Rx0)*
X166878000Y-70866000D03*
G04 #@! TD*
G04 #@! TO.P,P7,1*
G04 #@! TO.N,/14(Tx3)*
X171958000Y-70866000D03*
G04 #@! TO.P,P7,2*
G04 #@! TO.N,/15(Rx3)*
X174498000Y-70866000D03*
G04 #@! TO.P,P7,3*
G04 #@! TO.N,/16(Tx2)*
X177038000Y-70866000D03*
G04 #@! TO.P,P7,4*
G04 #@! TO.N,/17(Rx2)*
X179578000Y-70866000D03*
G04 #@! TO.P,P7,5*
G04 #@! TO.N,/18(Tx1)*
X182118000Y-70866000D03*
G04 #@! TO.P,P7,6*
G04 #@! TO.N,/19(Rx1)*
X184658000Y-70866000D03*
G04 #@! TO.P,P7,7*
G04 #@! TO.N,/20(SDA)*
X187198000Y-70866000D03*
G04 #@! TO.P,P7,8*
G04 #@! TO.N,/21(SCL)*
X189738000Y-70866000D03*
G04 #@! TD*
D15*
G04 #@! TO.P,P8,1*
G04 #@! TO.N,Net-(P8-Pad1)*
X117348000Y-119126000D03*
G04 #@! TD*
G04 #@! TO.P,P9,1*
G04 #@! TO.N,Net-(P9-Pad1)*
X169418000Y-114046000D03*
G04 #@! TD*
G04 #@! TO.P,P10,1*
G04 #@! TO.N,Net-(P10-Pad1)*
X199898000Y-119126000D03*
G04 #@! TD*
G04 #@! TO.P,P11,1*
G04 #@! TO.N,Net-(P11-Pad1)*
X118618000Y-70866000D03*
G04 #@! TD*
G04 #@! TO.P,P12,1*
G04 #@! TO.N,Net-(P12-Pad1)*
X169418000Y-86106000D03*
G04 #@! TD*
G04 #@! TO.P,P13,1*
G04 #@! TO.N,Net-(P13-Pad1)*
X193548000Y-70866000D03*
G04 #@! TD*
D16*
G04 #@! TO.N,GND*
X170180000Y-80010000D02*
X160020000Y-80010000D01*
X173990000Y-91440000D02*
X171450000Y-93980000D01*
X173990000Y-82550000D02*
X173990000Y-91440000D01*
X171450000Y-82550000D02*
X173990000Y-82550000D01*
X170180000Y-80010000D02*
X170180000Y-81280000D01*
X170180000Y-81280000D02*
X171450000Y-82550000D01*
X199898000Y-114046000D02*
X202946000Y-114046000D01*
X202946000Y-114046000D02*
X204470000Y-112522000D01*
X204470000Y-112522000D02*
X204470000Y-67310000D01*
X204470000Y-67310000D02*
X168910000Y-67310000D01*
X168910000Y-67310000D02*
X168910000Y-76200000D01*
X168910000Y-76200000D02*
X170180000Y-77470000D01*
X170180000Y-77470000D02*
X170180000Y-80010000D01*
X124460000Y-96520000D02*
X130810000Y-96520000D01*
X124460000Y-113030000D02*
X124460000Y-96520000D01*
X143510000Y-113030000D02*
X124460000Y-113030000D01*
X144018000Y-119126000D02*
X144018000Y-113538000D01*
X144018000Y-113538000D02*
X143510000Y-113030000D01*
X144018000Y-119126000D02*
X146558000Y-119126000D01*
X197358000Y-114046000D02*
X199898000Y-114046000D01*
X171450000Y-93980000D02*
X133350000Y-93980000D01*
X133350000Y-93980000D02*
X130810000Y-96520000D01*
X129794000Y-93954000D02*
X129794000Y-70866000D01*
X130810000Y-96520000D02*
X130810000Y-94970000D01*
X130810000Y-94970000D02*
X129794000Y-93954000D01*
D17*
G04 #@! TO.N,+5V*
X138074400Y-115570000D02*
X141478000Y-118973600D01*
X120650000Y-114300000D02*
X121920000Y-115570000D01*
X120650000Y-80010000D02*
X120650000Y-114300000D01*
X128605390Y-72054610D02*
X120650000Y-80010000D01*
X130982610Y-73832610D02*
X130982610Y-70221262D01*
D18*
X130982610Y-70221262D02*
X130286338Y-69524990D01*
D17*
X121920000Y-115570000D02*
X138074400Y-115570000D01*
D18*
X130286338Y-69524990D02*
X129301662Y-69524990D01*
D19*
X141478000Y-118973600D02*
X141478000Y-119126000D01*
D18*
X128605390Y-70221262D02*
X128605390Y-72054610D01*
D17*
X137160000Y-80010000D02*
X130982610Y-73832610D01*
D18*
X129301662Y-69524990D02*
X128605390Y-70221262D01*
X178950000Y-80010000D02*
X177800000Y-80010000D01*
X185871610Y-73088390D02*
X178950000Y-80010000D01*
X185871610Y-70323687D02*
X185871610Y-73088390D01*
X188185287Y-68010010D02*
X185871610Y-70323687D01*
X197042010Y-68010010D02*
X188185287Y-68010010D01*
X199898000Y-70866000D02*
X197042010Y-68010010D01*
D16*
X182880000Y-83820000D02*
X182880000Y-96520000D01*
X177800000Y-80010000D02*
X177800000Y-83820000D01*
X177800000Y-83820000D02*
X182880000Y-83820000D01*
X182880000Y-96520000D02*
X171450000Y-96520000D01*
D17*
X130810000Y-104140000D02*
X151130000Y-104140000D01*
X151130000Y-104140000D02*
X151130000Y-119380000D01*
X141478000Y-119278400D02*
X141478000Y-119126000D01*
X149967990Y-120542010D02*
X142741610Y-120542010D01*
X142741610Y-120542010D02*
X141478000Y-119278400D01*
X151130000Y-119380000D02*
X149967990Y-120542010D01*
D19*
X170085001Y-97884999D02*
X128175001Y-97884999D01*
X171450000Y-96520000D02*
X170085001Y-97884999D01*
X128175001Y-97884999D02*
X128270000Y-97979998D01*
X128270000Y-101600000D02*
X130810000Y-104140000D01*
X128270000Y-97979998D02*
X128270000Y-101600000D01*
D16*
G04 #@! TO.N,/11(\002A\002A)*
X139700000Y-80010000D02*
X139700000Y-74930000D01*
X137414000Y-72644000D02*
X137414000Y-70866000D01*
X139700000Y-74930000D02*
X137414000Y-72644000D01*
G04 #@! TO.N,/10(\002A\002A)*
X139954000Y-71018400D02*
X139954000Y-70866000D01*
X142240000Y-73304400D02*
X139954000Y-71018400D01*
X142240000Y-80010000D02*
X142240000Y-73304400D01*
G04 #@! TO.N,/9(\002A\002A)*
X142494000Y-71018400D02*
X142494000Y-70866000D01*
X144780000Y-73304400D02*
X142494000Y-71018400D01*
X144780000Y-80010000D02*
X144780000Y-73304400D01*
G04 #@! TO.N,/8(\002A\002A)*
X145796000Y-70866000D02*
X145034000Y-70866000D01*
X147320000Y-80010000D02*
X147320000Y-72390000D01*
X147320000Y-72390000D02*
X145796000Y-70866000D01*
G04 #@! TO.N,/7(\002A\002A)*
X149860000Y-71628000D02*
X149098000Y-70866000D01*
X149860000Y-80010000D02*
X149860000Y-71628000D01*
G04 #@! TO.N,/6(\002A\002A)*
X152400000Y-71628000D02*
X151638000Y-70866000D01*
X152400000Y-80010000D02*
X152400000Y-71628000D01*
G04 #@! TO.N,/5(\002A\002A)*
X154940000Y-71628000D02*
X154178000Y-70866000D01*
X154940000Y-80010000D02*
X154940000Y-71628000D01*
G04 #@! TO.N,/4(\002A\002A)*
X157480000Y-71628000D02*
X156718000Y-70866000D01*
X157480000Y-80010000D02*
X157480000Y-71628000D01*
G04 #@! TO.N,/20(SDA)*
X171450000Y-99060000D02*
X186690000Y-99060000D01*
X187198000Y-98552000D02*
X186690000Y-99060000D01*
X187198000Y-70866000D02*
X187198000Y-98552000D01*
X140970000Y-99060000D02*
X130810000Y-99060000D01*
X171450000Y-99060000D02*
X140970000Y-99060000D01*
G04 #@! TO.N,/21(SCL)*
X189738000Y-70866000D02*
X189738000Y-101092000D01*
X189230000Y-101600000D02*
X171450000Y-101600000D01*
X189738000Y-101092000D02*
X189230000Y-101600000D01*
X171450000Y-101600000D02*
X130810000Y-101600000D01*
G04 #@! TO.N,/18(Tx1)*
X172720000Y-74930000D02*
X172720000Y-80010000D01*
X173990000Y-73660000D02*
X172720000Y-74930000D01*
X179476400Y-73660000D02*
X173990000Y-73660000D01*
X182118000Y-70866000D02*
X182118000Y-71018400D01*
X182118000Y-71018400D02*
X179476400Y-73660000D01*
G04 #@! TO.N,/19(Rx1)*
X179476400Y-76200000D02*
X175260000Y-76200000D01*
X184658000Y-71018400D02*
X179476400Y-76200000D01*
X184658000Y-70866000D02*
X184658000Y-71018400D01*
X175260000Y-80010000D02*
X175260000Y-76200000D01*
G04 #@! TD*
M02*
